<svg width="83" height="79" viewBox="0 0 83 79" fill="none" xmlns="http://www.w3.org/2000/svg">
<path d="M5.16782 15.2148L26.0234 26.7675L9.45671 51.5139L4.4456 48.8622L2.05671 45.1888C2.05671 45.1888 0.901158 31.7233 5.16782 15.2148Z" fill="#C8E4E8"/>
<path d="M5.16742 15.2043C5.16742 15.2043 -4.39925 45.5369 3.68964 54.0465C11.7785 62.567 14.5008 53.8074 14.5008 53.8074L14.7119 52.7315L19.1008 29.7131L42.6674 16.4759L24.1785 1.02159L22.9674 0C22.9674 0 3.95631 28.072 4.4452 48.8516C4.4452 48.8516 0.0674175 39.7877 5.16742 15.2152V15.2043Z" fill="white"/>
<g style="mix-blend-mode:multiply" opacity="0.31">
<path d="M9.31093 50.4711C10.2887 53.1772 12.2443 53.6554 14.7109 52.7317L19.0998 29.7132L42.6665 16.476L24.1776 1.02174L24.1554 1C24.1554 1 4.64427 37.4839 9.31093 50.4711Z" fill="#8AC6D1"/>
</g>
<path d="M10.1227 52.6878C9.9671 52.5139 4.34487 45.6888 8.50043 30.9844C8.50043 30.9844 3.21154 47.156 8.07821 55.4482C12.9338 63.7296 10.1338 52.6878 10.1338 52.6878H10.1227Z" fill="#C8E4E8"/>
<path d="M2.38965 52.2321C2.56743 53.232 3.98965 54.8296 6.15632 56.775C6.75632 57.3075 7.42298 57.8726 8.13409 58.4595C15.5452 64.5456 28.1563 72.7835 34.0785 76.5656C34.6785 76.946 35.2008 77.2829 35.6563 77.5654C36.723 78.2393 37.3341 78.6196 37.3341 78.6196C43.4785 80.0433 43.9008 73.4139 43.9008 73.4139L41.1897 71.3924L39.3897 70.0448L14.1452 51.1779L12.6119 50.0259L9.05632 47.3633C9.05632 47.3633 7.33409 53.2646 5.20076 53.9602C3.9452 54.3623 2.5452 52.4278 2.40076 52.2213L2.38965 52.2321Z" fill="#F4C43C"/>
<path d="M6.15625 56.7753C6.75625 57.3078 7.42292 57.8729 8.13403 58.4598C11.6007 56.9709 13.3563 53.4497 14.1451 51.1891L12.6118 50.0371C10.6229 54.2648 8.02292 56.0362 6.15625 56.7753Z" fill="#EF5E81"/>
<path d="M34.0674 76.5646C34.6674 76.945 35.1896 77.2819 35.6452 77.5645C39.3229 76.1842 40.7452 73.1521 41.1896 71.4023L39.3896 70.0547C39.2118 73.5759 36.0118 75.63 34.0674 76.5646Z" fill="#EF5E81"/>
<path d="M9.04492 47.3737C9.04492 47.3737 18.9338 10.1726 48.4005 5.85797C49.556 5.68408 82.0116 47.3085 82.0116 47.3085C82.0116 47.3085 55.8783 57.0571 43.8783 73.4134L9.04492 47.3737Z" fill="#E0A23C"/>
<path d="M43.967 67.1327L16.167 45.6793C16.167 45.6793 22.8114 20.7373 47.667 11.9668L74.0448 45.0707C74.0448 45.0707 53.767 51.3741 43.967 67.1327Z" fill="#F4C43C"/>
</svg>
