<svg width="40" height="39" viewBox="0 0 40 39" fill="none" xmlns="http://www.w3.org/2000/svg">
<g clip-path="url(#clip0_936_12889)">
<path d="M39.0551 19.2595C39.0551 8.62359 30.486 0.00195312 19.9171 0.00195312C9.34342 0.00434537 0.774414 8.62359 0.774414 19.2619C0.774414 28.8715 7.77411 36.8377 16.922 38.2826V24.8262H12.0658V19.2619H16.9268V15.0157C16.9268 10.1905 19.7856 7.52555 24.1562 7.52555C26.2518 7.52555 28.4407 7.90113 28.4407 7.90113V12.6378H26.0269C23.6514 12.6378 22.9098 14.1234 22.9098 15.6472V19.2595H28.2158L27.369 24.8239H22.9074V38.2802C32.0554 36.8353 39.0551 28.8691 39.0551 19.2595Z" fill="black"/>
</g>
<defs>
<clipPath id="clip0_936_12889">
<rect width="38.2759" height="38.2759" fill="white" transform="translate(0.779297 0.00390625)"/>
</clipPath>
</defs>
</svg>
