<svg width="39" height="39" viewBox="0 0 39 39" fill="none" xmlns="http://www.w3.org/2000/svg">
<g clip-path="url(#clip0_936_12891)">
<path d="M19.1926 0.00390625C13.9991 0.00390625 13.346 0.0278287 11.3054 0.118734C9.26482 0.214423 7.87492 0.534984 6.65727 1.00865C5.38004 1.48906 4.22315 2.24263 3.26747 3.21669C2.29401 4.17286 1.54053 5.32961 1.05943 6.60649C0.585765 7.82175 0.262813 9.21404 0.169515 11.2474C0.0786099 13.2928 0.0546875 13.9435 0.0546875 19.1442C0.0546875 24.3402 0.0786099 24.9909 0.169515 27.0315C0.265205 29.0696 0.585765 30.4595 1.05943 31.6772C1.54984 32.9355 2.20292 34.0024 3.26747 35.067C4.32962 36.1315 5.39656 36.787 6.65488 37.275C7.87493 37.7487 9.26243 38.0716 11.3006 38.1649C13.3436 38.2558 13.9943 38.2798 19.1926 38.2798C24.391 38.2798 25.0393 38.2558 27.0822 38.1649C29.118 38.0693 30.5127 37.7487 31.7304 37.275C33.0068 36.7944 34.1628 36.0408 35.1178 35.067C36.1823 34.0024 36.8354 32.9355 37.3258 31.6772C37.7971 30.4595 38.12 29.0696 38.2157 27.0315C38.3066 24.9909 38.3306 24.3402 38.3306 19.1418C38.3306 13.9435 38.3066 13.2928 38.2157 11.2498C38.12 9.21404 37.7971 7.82175 37.3258 6.60649C36.8448 5.32957 36.0913 4.17281 35.1178 3.21669C34.1624 2.24227 33.0054 1.48864 31.728 1.00865C30.5079 0.534984 29.1156 0.212031 27.0798 0.118734C25.0369 0.0278287 24.3886 0.00390625 19.1878 0.00390625H19.195H19.1926ZM17.4774 3.45352H19.195C24.3048 3.45352 24.9101 3.47026 26.9267 3.56356C28.7927 3.64729 29.807 3.96067 30.4816 4.22143C31.3739 4.5683 32.0126 4.98455 32.6825 5.65438C33.3523 6.32421 33.7662 6.96054 34.113 7.85524C34.3762 8.52746 34.6872 9.54177 34.7709 11.4077C34.8642 13.4244 34.8833 14.0296 34.8833 19.1371C34.8833 24.2445 34.8642 24.8521 34.7709 26.8688C34.6872 28.7347 34.3738 29.7466 34.113 30.4213C33.8062 31.2522 33.3165 32.0036 32.6801 32.6197C32.0102 33.2896 31.3739 33.7034 30.4792 34.0503C29.8094 34.3134 28.7951 34.6244 26.9267 34.7105C24.9101 34.8015 24.3048 34.823 19.195 34.823C14.0852 34.823 13.4776 34.8015 11.4609 34.7105C9.59495 34.6244 8.58303 34.3134 7.90842 34.0503C7.07711 33.7439 6.32505 33.2551 5.70755 32.6197C5.07062 32.0026 4.58015 31.2505 4.27221 30.4189C4.01145 29.7466 3.69807 28.7323 3.61434 26.8664C3.52344 24.8497 3.5043 24.2445 3.5043 19.1323C3.5043 14.0224 3.52344 13.4196 3.61434 11.4029C3.70046 9.53699 4.01146 8.52268 4.2746 7.84807C4.62148 6.95576 5.03773 6.31703 5.70755 5.6472C6.37738 4.97738 7.01372 4.56352 7.90842 4.21664C8.58303 3.9535 9.59495 3.64251 11.4609 3.55638C13.2264 3.47505 13.9106 3.45113 17.4774 3.44873V3.45352ZM29.4099 6.63041C29.1083 6.63041 28.8097 6.68982 28.531 6.80523C28.2524 6.92064 27.9992 7.08981 27.786 7.30306C27.5727 7.51631 27.4036 7.76948 27.2881 8.04811C27.1727 8.32675 27.1133 8.62538 27.1133 8.92697C27.1133 9.22855 27.1727 9.52719 27.2881 9.80582C27.4036 10.0844 27.5727 10.3376 27.786 10.5509C27.9992 10.7641 28.2524 10.9333 28.531 11.0487C28.8097 11.1641 29.1083 11.2235 29.4099 11.2235C30.019 11.2235 30.6031 10.9816 31.0338 10.5509C31.4645 10.1202 31.7064 9.53605 31.7064 8.92697C31.7064 8.31788 31.4645 7.73375 31.0338 7.30306C30.6031 6.87237 30.019 6.63041 29.4099 6.63041ZM19.195 9.31451C17.8914 9.29417 16.5968 9.53337 15.3865 10.0182C14.1762 10.503 13.0745 11.2237 12.1454 12.1384C11.2164 13.053 10.4786 14.1434 9.97493 15.346C9.47131 16.5485 9.21195 17.8393 9.21195 19.143C9.21195 20.4468 9.47131 21.7375 9.97493 22.9401C10.4786 24.1427 11.2164 25.233 12.1454 26.1477C13.0745 27.0624 14.1762 27.7831 15.3865 28.2679C16.5968 28.7527 17.8914 28.9919 19.195 28.9716C21.7751 28.9313 24.236 27.8781 26.0463 26.0393C27.8567 24.2004 28.8714 21.7235 28.8714 19.143C28.8714 16.5626 27.8567 14.0856 26.0463 12.2468C24.236 10.408 21.7751 9.35476 19.195 9.31451ZM19.195 12.7617C20.8871 12.7617 22.5099 13.4339 23.7064 14.6304C24.9029 15.8269 25.5751 17.4497 25.5751 19.1418C25.5751 20.8339 24.9029 22.4568 23.7064 23.6533C22.5099 24.8498 20.8871 25.5219 19.195 25.5219C17.5029 25.5219 15.8801 24.8498 14.6836 23.6533C13.4871 22.4568 12.8149 20.8339 12.8149 19.1418C12.8149 17.4497 13.4871 15.8269 14.6836 14.6304C15.8801 13.4339 17.5029 12.7617 19.195 12.7617Z" fill="black"/>
</g>
<defs>
<clipPath id="clip0_936_12891">
<rect width="38.2759" height="38.2759" fill="white" transform="translate(0.0546875 0.00390625)"/>
</clipPath>
</defs>
</svg>
