<svg width="93" height="68" viewBox="0 0 93 68" fill="none" xmlns="http://www.w3.org/2000/svg">
<path d="M56.6712 6.48259L55.3912 4.48224C55.3912 4.48224 48.6812 5.3724 45.4612 7.1627L42.1412 0.0214844C42.1412 0.0214844 28.7112 7.81281 26.9112 28.4263L25.5212 28.9664C25.5212 28.9664 20.4912 13.1337 7.74121 11.6035L36.3412 51.7303L66.1312 26.0959L56.6712 6.48259Z" fill="#C8E4E8"/>
<path d="M64.551 12.1235C64.121 11.9535 58.811 5.85248 58.811 5.85248C58.811 5.85248 37.361 11.1134 28.391 28.4963C28.391 28.4963 34.321 9.22305 55.401 4.47224C55.401 4.47224 36.891 4.47224 27.261 28.0363C27.261 28.0363 28.231 11.6435 42.161 0.0214844C42.161 0.0214844 28.891 8.36291 26.071 28.5563C26.071 28.5563 21.821 13.6238 7.76102 11.6135C7.76102 11.6135 22.591 17.0644 24.931 29.3365C24.931 29.3365 15.161 14.794 4.04102 16.6643L23.061 35.2275L33.751 34.1373L64.571 12.1435L64.551 12.1235Z" fill="white"/>
<path d="M28.7793 30.8773C28.7793 30.8773 42.1593 10.0138 64.3093 8.93359L92.0493 42.3993C92.0493 42.3993 60.4893 57.5219 54.6893 64.8331L28.7793 30.8773Z" fill="#EF5E81"/>
<path d="M35.2705 29.8077C35.2705 29.8077 50.2805 13.585 63.4205 13.2949L85.9305 41.3197C85.9305 41.3197 65.8105 48.2809 55.8305 58.3126L35.2705 29.8077Z" fill="#F789A9"/>
<path d="M23.4495 30.0763L0.439453 14.1836L36.2095 58.2111L49.8495 66.6225L23.4495 30.0763Z" fill="#EF5E81"/>
<path d="M23.4385 32.4775L9.22852 23.0859L34.9685 54.7613L42.9785 59.7322L23.4385 32.4775Z" fill="#F789A9"/>
<path d="M49.8496 66.6132L46.1096 61.4323L45.2696 60.2621L27.8896 36.198L27.4696 35.6179L23.8496 30.6171C25.4196 31.9773 29.7196 29.5469 29.7196 29.5469L32.0796 32.7374L32.6596 33.5276L50.6796 57.7817L51.2696 58.5818L55.3496 64.0728C54.1996 69.6137 49.8396 66.6132 49.8396 66.6132H49.8496Z" fill="#D63866"/>
<path d="M51.2686 58.5814C50.6586 59.5816 49.0086 61.6919 46.1086 61.4419L45.2686 60.2717C46.3486 60.2417 49.1286 59.9416 50.6786 57.7812L51.2686 58.5814Z" fill="white"/>
<path d="M32.659 33.5284C31.899 34.8486 30.479 36.2589 27.879 36.2089L27.459 35.6288C28.809 35.6388 30.739 35.1687 32.079 32.7383L32.659 33.5284Z" fill="white"/>
</svg>
