<svg width="500" height="510" viewBox="0 0 500 510" fill="none" xmlns="http://www.w3.org/2000/svg">
<ellipse cx="259.976" cy="446.746" rx="239.079" ry="25.1366" fill="#472D3A"/>
<path d="M345.643 351.147C332.558 334.231 297.64 335.168 274.367 347.791C251.094 360.414 226.365 360.363 226.365 360.363C226.365 360.363 201.636 360.414 178.362 347.791C155.089 335.168 120.171 334.231 107.087 351.147C94.0023 368.063 95.442 445.641 112.909 460.104C130.36 474.566 322.385 474.566 339.836 460.104C357.287 445.641 358.743 368.063 345.658 351.147H345.643Z" fill="#EF5E81"/>
<path d="M349.392 358.71C343.143 355.61 332.353 351.657 321.626 354.247C313.794 356.155 307.371 361.299 302.561 369.527C288.258 393.973 292.245 447.463 294.524 468.638C295.062 468.604 295.6 468.553 296.137 468.519C293.954 447.565 290.046 394.143 303.906 370.447C308.494 362.611 314.569 357.722 321.974 355.916C332.97 353.242 344.377 357.995 350.136 361.01C349.899 360.209 349.661 359.46 349.392 358.71Z" fill="#F7E9E9"/>
<path d="M341.292 192.651H335.185C334.71 186.706 333.397 180.88 331.325 175.242C330.787 179.977 329.916 184.679 328.761 189.296C328.477 190.42 328.16 191.544 327.796 192.651H249.971L233.595 192.294H233.137L209.452 191.766H208.993L199.832 191.544H199.374L192.08 191.374H191.605L178.632 191.084C177.413 185.156 176.828 179.296 176.543 173.044C174.028 178.632 172.604 184.747 172.319 190.948L169.519 190.897H169.076L163.348 190.761H162.874L158.618 190.658C158.618 190.658 152.748 147.645 190.197 131.989C191.21 131.563 192.27 131.086 193.361 130.541C193.852 130.303 194.374 130.03 194.896 129.758C211.097 121.274 233.311 102.024 253.784 82.3999C253.831 82.3488 253.894 82.2977 253.942 82.2466C253.989 82.1955 254.053 82.1444 254.1 82.0933C256.853 79.4699 259.558 76.8294 262.216 74.206C262.343 74.0868 262.454 73.9846 262.565 73.8653C265.602 70.8842 268.561 67.9371 271.425 65.007H271.44C271.551 64.9048 271.662 64.7856 271.773 64.6663C276.962 59.4536 281.819 54.4452 286.17 49.8457C286.297 49.7265 286.407 49.6073 286.518 49.488C290.252 45.604 293.59 42.0266 296.502 38.9092C296.612 38.7899 296.723 38.6877 296.818 38.5685C299.571 35.6384 301.897 33.0832 303.716 31.1071L304.048 30.7493C306.738 27.8193 308.225 26.1328 308.225 26.1328C308.273 26.1498 308.336 26.218 308.383 26.2691C308.399 26.2861 308.431 26.3032 308.478 26.3543L308.811 26.6439C308.811 26.6439 308.826 26.6609 308.842 26.6609C311.469 28.9095 321.531 38.5514 324.616 55.0244C324.632 55.0244 324.632 55.0415 324.632 55.0415C324.743 55.6547 324.854 56.251 324.949 56.8813C325.043 57.4775 325.107 58.0567 325.186 58.6359C326.515 69.9983 324.316 80.7134 322.607 89.6739C322.559 89.8613 322.512 90.0657 322.48 90.2531C321.215 96.8798 320.25 102.518 321.23 106.777C321.31 107.186 321.436 107.595 321.563 107.97C321.642 108.208 321.705 108.396 321.8 108.617C324.632 115.465 341.498 123.489 345.232 149.74C345.311 150.217 345.374 150.677 345.406 151.154C346.703 161.767 345.88 175.224 341.292 192.617V192.651Z" fill="#593845"/>
<path d="M274.541 192.651H274.067C275.775 186.331 275.839 179.534 274.193 173.146C273.228 169.398 271.662 165.702 270.159 162.124C267.374 155.532 264.479 148.718 265.381 141.495C265.713 138.735 266.599 136.027 267.453 133.386C268.877 128.991 270.222 124.852 269.257 120.559L269.7 120.439C270.713 124.869 269.289 129.298 267.881 133.557C267.042 136.163 266.172 138.837 265.84 141.546C264.969 148.616 267.691 155.072 270.586 161.92C272.089 165.497 273.671 169.228 274.636 173.01C276.298 179.432 276.234 186.263 274.541 192.651Z" fill="#704753"/>
<path d="M287.975 192.652H287.517C286.868 185.02 284.368 177.576 280.302 171.341C279.464 170.046 278.53 168.803 277.644 167.576C275.619 164.816 273.546 161.954 272.265 158.65C270.002 152.807 270.224 145.669 272.945 137.407C274.037 134.051 275.413 130.763 276.758 127.595C278.135 124.324 279.574 120.951 280.666 117.51L281.109 117.68C280.001 121.121 278.562 124.511 277.185 127.782C275.84 130.951 274.464 134.221 273.372 137.56C270.714 145.703 270.477 152.738 272.692 158.479C273.942 161.716 276.014 164.544 278.024 167.269C278.91 168.496 279.843 169.757 280.682 171.051C284.811 177.371 287.343 184.935 287.991 192.652H287.975Z" fill="#704753"/>
<path d="M307.308 192.651H306.849C307.846 181.629 304.697 170.113 298.179 161.545C297.008 159.995 295.726 158.53 294.461 157.099C292.056 154.356 289.572 151.511 287.863 148.155C282.057 136.742 286.756 122.807 292.531 114.357L292.894 114.647C287.183 122.994 282.563 136.725 288.259 147.917C289.936 151.222 292.404 154.049 294.793 156.775C296.043 158.206 297.356 159.688 298.543 161.238C305.14 169.892 308.305 181.51 307.308 192.651Z" fill="#704753"/>
<path d="M325.772 192.652H325.313C325.725 182.891 325.139 172.601 320.377 164.084C317.608 159.144 313.59 155.106 309.713 151.222C308.353 149.859 306.929 148.429 305.6 146.998C298.955 139.843 295.711 133.165 295.648 126.555C295.616 122.399 296.866 118.396 298.1 114.512C299.303 110.696 300.537 106.761 300.537 102.74H300.996C300.996 106.829 299.746 110.832 298.543 114.665C297.325 118.498 296.075 122.484 296.107 126.555C296.154 133.046 299.366 139.604 305.916 146.64C307.261 148.071 308.669 149.485 310.03 150.848C313.938 154.783 317.972 158.837 320.757 163.828C325.551 172.431 326.183 182.823 325.756 192.652H325.772Z" fill="#704753"/>
<path d="M336.593 192.652H336.134C337.194 185.412 336.91 177.951 335.264 170.813C332.638 159.536 326.626 149.213 318.319 141.768C317.339 140.865 316.279 140.014 315.266 139.162C312.909 137.203 310.472 135.159 308.479 132.671C302.118 124.716 301.454 112.161 306.928 103.49L307.308 103.763C301.944 112.263 302.577 124.563 308.811 132.348C310.757 134.801 313.193 136.811 315.535 138.753C316.547 139.588 317.592 140.474 318.588 141.359C326.974 148.872 333.049 159.28 335.691 170.677C337.353 177.849 337.637 185.344 336.577 192.635L336.593 192.652Z" fill="#704753"/>
<path d="M345.405 151.189C343.001 146.129 339.931 141.479 336.245 137.458C334.441 135.482 332.463 133.626 330.549 131.837C327.132 128.6 323.588 125.278 320.914 121.224C318.699 117.868 317.148 114.069 316.294 110.083C316.405 109.725 316.468 109.385 316.547 109.01C317.322 113.286 318.936 117.374 321.278 120.934C323.936 124.955 327.448 128.259 330.865 131.462C332.78 133.268 334.758 135.125 336.577 137.101C339.994 140.848 342.906 145.124 345.231 149.775C345.31 150.252 345.374 150.712 345.405 151.189Z" fill="#704753"/>
<path d="M199.801 121.904C198.947 125.055 197.143 127.56 194.912 129.74C192.824 131.801 190.34 133.573 187.935 135.293C186.875 136.06 185.768 136.844 184.755 137.627C175.847 144.424 169.028 154.339 165.548 165.497C163.032 173.589 162.304 182.293 163.38 190.743H162.906C161.846 182.242 162.573 173.486 165.105 165.343C168.617 154.083 175.484 144.101 184.486 137.218C185.499 136.435 186.622 135.651 187.666 134.885C189.612 133.488 191.59 132.091 193.378 130.524C196.099 128.122 198.377 125.362 199.358 121.768L199.801 121.904Z" fill="#704753"/>
<path d="M204.532 130.115C202.095 136.043 196.7 139.382 191.479 142.584C188.583 144.339 185.625 146.196 183.125 148.444C174.708 156.076 171.86 168.648 170.326 178.733C169.74 182.532 169.218 186.722 169.55 190.879H169.107C168.759 186.688 169.313 182.481 169.883 178.665C171.433 168.478 174.281 155.838 182.84 148.07C185.356 145.787 188.346 143.93 191.242 142.158C196.637 138.854 201.747 135.719 204.12 129.91L204.532 130.098V130.115Z" fill="#704753"/>
<path d="M214.483 136.963C200.244 150.421 191.969 170.982 192.096 191.373H191.621C191.51 170.829 199.848 150.148 214.198 136.605L214.483 136.98V136.963Z" fill="#704753"/>
<path d="M215.638 146.52C206.003 159.16 200.45 175.241 199.833 191.543H199.374C200.007 175.139 205.576 158.938 215.29 146.213L215.638 146.52Z" fill="#704753"/>
<path d="M223.439 149.91C214.516 161.613 209.627 176.655 209.453 191.766H208.994C209.184 176.536 214.104 161.392 223.091 149.604L223.439 149.91Z" fill="#704753"/>
<path d="M233.264 185.837C233.374 187.967 233.501 190.13 233.596 192.294H233.137C233.042 190.113 232.916 187.984 232.805 185.871C232.583 182.072 232.362 178.137 232.346 174.27C232.314 161.681 234.814 152.295 240.019 145.617L240.367 145.958C235.241 152.533 232.757 161.801 232.805 174.27C232.821 178.12 233.042 182.038 233.264 185.82V185.837Z" fill="#704753"/>
<path d="M220.796 21.227L188.362 128.48C188.362 128.48 185.166 125.482 181.321 119.707C181.147 119.401 180.941 119.128 180.751 118.821C180.736 118.821 180.751 118.804 180.751 118.804C178.726 115.653 176.575 111.786 174.66 107.169C174.455 106.726 174.28 106.266 174.091 105.807C170.816 97.5275 168.332 87.0679 168.537 74.547C168.553 73.3546 168.585 72.1621 168.68 70.9185C168.806 68.3462 169.059 65.6887 169.455 62.9631C175.499 20.7159 217.742 3.71484 217.742 3.71484L218.565 8.45062L220.099 17.2748L220.78 21.1929L220.796 21.227Z" fill="#593845"/>
<path d="M152.098 452.25C152.098 452.25 151.781 454.124 151.275 456.884C151.196 457.327 151.101 457.786 151.006 458.263C150.215 462.556 149.06 468.314 147.937 472.76C147.779 473.374 147.636 473.953 147.478 474.498C147.098 475.929 146.703 477.121 146.355 477.99C144.045 483.68 115.155 505.979 110.44 507.614C105.725 509.233 95.8368 512.265 91.7548 504.582C91.3435 503.815 91.3276 502.606 91.6283 501.039C91.6915 500.613 91.8023 500.17 91.9289 499.693C93.0838 495.349 95.995 489.046 99.6339 482.215C99.808 481.925 99.9662 481.619 100.124 481.295C109.19 464.43 122.085 444.959 122.085 444.959L152.082 452.216L152.098 452.25Z" fill="#6887FF"/>
<path d="M147.954 472.779C147.796 473.393 147.653 473.972 147.495 474.517C140.249 481.535 132.496 488.06 124.443 493.903C118.637 498.111 112.276 502.301 105.078 504.362C103.258 504.891 101.66 505.163 100.189 505.214C98.7491 505.265 97.4676 505.078 96.2652 504.686C94.3033 504.039 92.6737 502.71 91.6611 501.075C91.7244 500.649 91.8352 500.206 91.9617 499.729C92.7686 501.552 94.4457 503.102 96.5183 503.783C98.7808 504.533 101.423 504.414 104.84 503.443C110.03 501.961 114.808 499.337 119.238 496.39C119.507 496.22 119.744 496.066 119.997 495.879C121.342 494.993 122.64 494.073 123.921 493.119C128.652 489.695 133.24 486.05 137.717 482.2C138.034 481.927 138.334 481.655 138.635 481.382H138.651V481.365C141.831 478.605 144.932 475.743 147.954 472.779Z" fill="#F7E9E9"/>
<path d="M151.276 456.902C151.197 457.328 151.102 457.788 151.007 458.265C144.204 463.699 139.568 472.285 138.651 481.365H138.635C138.603 481.603 138.572 481.825 138.572 482.063C138.572 482.319 138.366 482.489 138.144 482.506H138.097C137.939 482.506 137.796 482.37 137.733 482.2C137.733 482.2 137.701 482.063 137.686 481.995C138.524 472.064 143.682 462.592 151.292 456.919L151.276 456.902Z" fill="#F7E9E9"/>
<path d="M119.887 496.613C119.887 496.613 119.744 496.681 119.697 496.681C119.523 496.681 119.38 496.596 119.285 496.425C119.285 496.408 119.27 496.391 119.254 496.374C115.425 488.47 107.862 483.053 99.6826 482.252C99.8567 481.962 100.015 481.656 100.173 481.332C108.495 482.303 116.137 487.856 120.029 495.863C120.045 495.897 120.061 495.931 120.092 495.982C120.203 496.204 120.124 496.493 119.918 496.613H119.887Z" fill="#F7E9E9"/>
<path d="M123.922 473.666C123.827 473.666 123.732 473.649 123.653 473.581C119.555 470.497 114.539 468.964 109.556 469.322C109.334 469.339 109.097 469.135 109.081 468.879C109.081 468.624 109.255 468.385 109.492 468.368C114.666 468.01 119.887 469.595 124.143 472.797C124.349 472.951 124.396 473.24 124.254 473.462C124.175 473.598 124.032 473.666 123.906 473.666H123.922Z" fill="#F7E9E9"/>
<path d="M129.776 464.432C129.681 464.432 129.57 464.398 129.491 464.33C127.244 462.388 124.586 460.923 121.818 460.106C120.932 459.833 120.204 459.68 119.492 459.611C118.163 459.475 116.834 459.646 115.347 459.85C115.125 459.884 114.888 459.697 114.856 459.441C114.825 459.186 114.999 458.93 115.236 458.896C116.771 458.675 118.147 458.504 119.571 458.641C120.33 458.709 121.122 458.879 122.055 459.169C124.935 460.037 127.703 461.553 130.045 463.564C130.235 463.734 130.266 464.024 130.108 464.228C130.029 464.347 129.902 464.398 129.776 464.415V464.432Z" fill="#F7E9E9"/>
<path d="M163.631 419.407L156.812 439.117L151.939 453.239L121.53 445.999L126.656 430.293L133.602 409.084L163.631 419.407Z" fill="#E59A9A"/>
<path d="M156.812 439.117L151.939 453.239L121.53 445.999L126.656 430.293C137.114 431.111 147.414 434.126 156.812 439.117Z" fill="#F7E9E9"/>
<path d="M71.9469 420.156C71.9469 420.156 71.14 421.843 69.9059 424.33C69.716 424.722 69.5104 425.148 69.2889 425.574C67.3745 429.424 64.7164 434.585 62.4382 438.486C62.1217 439.031 61.8211 439.543 61.5205 440.002C60.7611 441.246 60.0649 442.268 59.4954 443.001C55.7457 447.719 22.0618 460.019 17.1097 460.104C12.1576 460.172 1.87362 459.985 0.0541509 451.348C-0.135707 450.479 0.180723 449.321 0.892688 447.907C1.06672 447.515 1.28822 447.123 1.54137 446.714C3.80384 442.915 8.31295 437.788 13.629 432.405C13.8663 432.183 14.1194 431.928 14.3409 431.689C27.5835 418.385 45.1928 403.803 45.1928 403.803L71.931 420.156H71.9469Z" fill="#6887FF"/>
<path d="M62.439 438.504C62.1226 439.049 61.822 439.56 61.5214 440.02C52.693 444.466 43.5166 448.282 34.2135 451.331C27.5211 453.546 20.3065 455.556 12.8546 455.266C10.9718 455.198 9.35803 454.96 7.9341 454.551C6.54182 454.142 5.37103 453.563 4.32681 452.813C2.63391 451.587 1.43148 449.798 0.893555 447.924C1.06759 447.533 1.28909 447.141 1.54223 446.732C1.8112 448.725 2.99781 450.735 4.81728 452.03C6.77914 453.444 9.34221 454.176 12.8704 454.313C18.2339 454.517 23.5182 453.495 28.5653 452.081C28.8659 452.013 29.1349 451.928 29.4355 451.842C30.9543 451.417 32.4574 450.94 33.9446 450.446C39.403 448.64 44.7823 446.596 50.0983 444.33C50.4622 444.16 50.8419 444.006 51.19 443.836H51.2058C55.0029 442.184 58.7368 440.412 62.4232 438.538L62.439 438.504Z" fill="#F7E9E9"/>
<path d="M69.9071 424.365C69.7172 424.74 69.5116 425.166 69.2901 425.592C61.316 428.658 54.5445 435.421 51.2061 443.819H51.1903C51.0954 444.024 51.0163 444.245 50.9372 444.45C50.8581 444.688 50.6366 444.79 50.4151 444.739H50.3676C50.2252 444.654 50.1145 444.484 50.0986 444.313C50.0986 444.313 50.0986 444.177 50.0986 444.092C53.5952 434.842 61.0787 427.397 69.8913 424.365H69.9071Z" fill="#F7E9E9"/>
<path d="M29.1199 452.524C29.1199 452.524 28.9617 452.524 28.9142 452.524C28.7402 452.473 28.6294 452.337 28.5819 452.149C28.5819 452.132 28.5819 452.115 28.5661 452.081C27.0473 443.325 21.2724 435.761 13.6465 432.423C13.8838 432.201 14.1369 431.946 14.3584 431.707C22.0635 435.25 27.87 442.95 29.4363 451.843C29.4363 451.877 29.4521 451.928 29.4679 451.962C29.5154 452.217 29.3572 452.473 29.1199 452.524Z" fill="#F7E9E9"/>
<path d="M39.1813 431.825C39.0863 431.791 39.0072 431.739 38.9439 431.654C35.8588 427.43 31.4762 424.38 26.619 423.154C26.3975 423.103 26.2393 422.83 26.2868 422.575C26.3501 422.319 26.5874 422.166 26.8247 422.217C31.8717 423.494 36.4283 426.663 39.6401 431.058C39.7983 431.262 39.7508 431.569 39.561 431.722C39.4502 431.825 39.3078 431.842 39.1654 431.808L39.1813 431.825Z" fill="#F7E9E9"/>
<path d="M47.2989 424.824C47.204 424.79 47.109 424.739 47.0458 424.637C45.4162 422.081 43.2803 419.85 40.8437 418.18C40.0685 417.652 39.404 417.277 38.7553 416.988C37.5212 416.443 36.1922 416.187 34.7208 415.932C34.4993 415.898 34.3095 415.642 34.3569 415.387C34.3886 415.131 34.6259 414.944 34.8632 414.995C36.3821 415.267 37.7586 415.54 39.0876 416.119C39.7837 416.426 40.4957 416.835 41.3184 417.397C43.8498 419.134 46.0807 421.451 47.7735 424.109C47.9159 424.33 47.8527 424.62 47.6628 424.773C47.552 424.858 47.4097 424.875 47.2989 424.841V424.824Z" fill="#F7E9E9"/>
<path d="M91.8345 392.354L79.9842 409.083L71.5039 421.075L44.3701 404.602L53.5149 391.196L65.9031 373.07L91.8345 392.354Z" fill="#E59A9A"/>
<path d="M79.9842 409.084L71.5039 421.059L44.3701 404.603L53.5149 391.18C63.2926 395.251 72.3266 401.35 79.9842 409.084Z" fill="#F7E9E9"/>
<path d="M201.667 334.486L173.489 351.811C173.489 351.811 142.257 379.459 123.367 396.034C115.851 402.661 110.282 407.499 109.412 408.164C108.732 408.675 105.789 407.891 101.533 406.324C86.0437 400.651 53.3566 384.502 52.1383 382.151C50.5878 379.153 63.8937 363.821 89.5877 333.481C115.282 303.142 161.718 284.488 161.718 284.488L201.667 334.486Z" fill="#73C9DD"/>
<path d="M92.7201 402.678C92.6093 402.678 92.4986 402.626 92.4195 402.558C92.2296 402.371 92.2138 402.064 92.3878 401.86C106.453 385.097 122.48 370.294 139.995 357.858C140.2 357.705 140.485 357.773 140.627 357.994C140.77 358.216 140.707 358.522 140.501 358.676C123.05 371.06 107.102 385.813 93.0681 402.507C92.9732 402.609 92.8466 402.678 92.7359 402.678H92.7201Z" fill="#F7E9E9"/>
<path d="M131.925 374.025C129.536 380.362 126.72 387.211 124.347 393.548C124.03 394.382 123.73 395.217 123.381 396.035C115.866 402.661 110.297 407.499 109.427 408.164C108.747 408.675 105.804 407.891 101.548 406.324C110.788 394.655 120.977 383.838 131.925 374.025Z" fill="#472D3A"/>
<path d="M301.359 306.48C301.359 306.48 300.9 363.974 260.492 378.982C246.347 384.229 231.887 386.188 217.078 387.789C209.657 388.59 201.494 389.68 195.561 394.978C189.422 400.446 187.349 407.499 185.64 415.505C185.182 417.652 182.84 433.478 180.15 433.478C169.93 433.478 118.858 418.81 118.383 413.802C117.925 408.794 123.652 394.467 126.737 387.977C126.737 387.977 145.312 331.471 182.46 316.974L301.343 306.48H301.359Z" fill="#73C9DD"/>
<path d="M176.068 432.797L175.166 432.677C176.258 422.354 178.077 414.279 180.909 407.278C184.453 398.505 189.658 391.469 195.971 386.921C204.372 380.856 214.91 379.068 224.118 378.131C225.858 377.96 227.614 377.79 229.37 377.637C237.265 376.921 245.429 376.189 252.992 373.412C263.64 369.511 273.433 361.351 280.553 350.449C286.96 340.619 291.296 328.729 293.416 315.135L294.317 315.305C292.166 329.052 287.799 341.062 281.312 351.011C274.082 362.101 264.13 370.38 253.308 374.349C245.635 377.16 237.423 377.892 229.465 378.625C227.709 378.778 225.969 378.948 224.228 379.119C215.147 380.056 204.736 381.81 196.509 387.756C190.339 392.202 185.244 399.101 181.779 407.687C178.995 414.603 177.191 422.593 176.099 432.814L176.068 432.797Z" fill="#F7E9E9"/>
<path d="M118.399 414.313C118.399 414.313 118.304 414.313 118.257 414.279C118.019 414.194 117.893 413.922 117.972 413.666C117.988 413.598 118.035 413.376 118.114 413.036C121.01 400.106 129.949 367.535 150.58 344.486C175.119 317.077 187.127 310.774 187.238 310.723C187.46 310.603 187.729 310.723 187.839 310.961C187.95 311.2 187.839 311.506 187.618 311.608C187.507 311.677 175.609 317.928 151.213 345.168C130.74 368.046 121.848 400.413 118.984 413.274C118.889 413.683 118.842 413.922 118.81 413.99C118.747 414.194 118.573 414.33 118.383 414.33L118.399 414.313Z" fill="#472D3A"/>
<path d="M308.778 193.486L289.586 310.143L248.387 303.039L173.789 290.161L187.111 215.155C198.407 187.626 225.525 174.066 235.414 169.91C235.73 169.79 235.999 169.671 236.268 169.552C238.072 168.819 239.1 168.479 239.1 168.479L266.345 163.641C268.212 164.22 270.094 164.918 271.93 165.719C272.214 165.821 272.515 165.957 272.8 166.094C283.574 170.847 293.368 178.666 300.013 184.713C300.282 184.969 300.566 185.224 300.82 185.463C305.788 190.062 308.762 193.486 308.762 193.486H308.778Z" fill="#F4C43C"/>
<path d="M115.599 193.742L130.692 189.738C130.692 189.738 144.394 214.49 149.805 235.324C149.805 235.324 173.869 203.741 243.99 198.494L254.907 209.244L148.333 246.738L115.599 193.742Z" fill="#FEFFFF"/>
<path d="M266.378 311.147L165.453 324.81L165.31 324.588L134.806 279.462L114.064 191.135L148.429 238.475C148.555 238.458 148.698 238.39 148.903 238.305C154.093 235.801 185.166 209.073 257.423 206.807L266.393 311.13L266.378 311.147Z" fill="#CADBD5"/>
<path d="M168.189 321.046L168.11 320.586L153.649 240.521L153.903 240.333C189.121 214.304 253.103 210.539 253.752 210.505L254.211 210.471L259.131 306.157L168.205 321.046H168.189ZM154.662 240.964L168.917 319.939L258.166 305.322L253.34 211.51C247.55 211.902 188.156 216.399 154.662 240.964Z" fill="#F7E9E9"/>
<g style="mix-blend-mode:multiply" opacity="0.38">
<path d="M165.294 324.606L134.79 279.48L114.048 191.152L148.412 238.493C148.539 238.476 148.681 238.408 148.887 238.323L165.294 324.606Z" fill="#CADBD5"/>
</g>
<path d="M335.612 281.61C335.58 281.985 335.533 282.359 335.501 282.734C333.729 300.485 326.894 307.265 314.332 313.363C314.016 313.517 313.715 313.67 313.383 313.84C312.212 314.385 310.978 314.931 309.712 315.51C289.904 324.164 268.861 320.177 261.109 314.845L248.104 313.176L248.388 303.057L249.021 280.502H249.29L259.242 280.162L264.637 270.724C264.637 270.724 264.637 270.707 264.653 270.69L275.759 251.236L276.456 250.044L308.763 193.504C308.763 193.504 333.84 226.501 335.707 262.837C336.087 270.196 336.055 276.397 335.596 281.644L335.612 281.61Z" fill="#F4C43C"/>
<path d="M249.052 281.355C249.052 281.355 234.639 265.512 232.092 268.272C229.545 271.032 232.93 280.588 232.93 280.588C232.93 280.588 215.353 273.025 213.976 278.408C212.6 283.791 226.981 288.629 226.981 288.629C226.981 288.629 211.018 288.016 210.828 292.36C210.654 296.704 225.257 298.526 225.257 298.526C225.257 298.526 210.559 299.208 210.685 303.535C210.812 307.862 225.51 307.027 225.51 307.027C225.51 307.027 218.517 309.804 219.83 313.722C220.922 316.993 248.309 312.904 248.309 312.904L249.068 281.355H249.052Z" fill="#E59A9A"/>
<path d="M122.369 219.448C125.027 220.675 127.432 222.583 129.315 224.951C129.837 225.615 130.327 226.314 130.564 227.148C131.181 229.261 130.058 231.492 128.46 232.872C129.077 234.082 129.235 235.53 128.903 236.858C128.571 238.187 127.637 239.465 126.546 240.18C127.448 240.742 128.365 241.322 129.03 242.19C129.694 243.059 130.058 244.269 129.694 245.325C129.504 245.904 129.093 246.398 128.65 246.79C126.894 248.374 124.347 248.681 122.132 248.016C119.917 247.352 118.018 245.819 116.404 244.064C115.898 243.519 115.407 242.923 115.091 242.224C114.189 240.231 114.775 237.778 115.645 235.768C114.316 234.422 113.541 232.446 113.588 230.487C113.635 228.528 114.553 226.62 115.93 225.343C114.964 223.469 114.775 221.152 115.439 219.125C116.104 217.115 117.622 215.428 119.474 214.645C120.043 216.45 121.341 217.83 122.321 219.431L122.369 219.448Z" fill="#E59A9A"/>
<path d="M128.255 233.212C128.255 233.212 128.239 233.212 128.224 233.212C125.312 233.008 122.702 231.577 120.297 230.06C118.557 228.953 116.595 227.607 115.472 225.495C115.345 225.257 115.424 224.967 115.646 224.831C115.867 224.694 116.136 224.78 116.263 225.018C117.275 226.926 119.126 228.204 120.756 229.226C123.05 230.691 125.566 232.054 128.271 232.241C128.524 232.241 128.714 232.496 128.698 232.769C128.698 233.025 128.477 233.229 128.239 233.229L128.255 233.212Z" fill="#472D3A"/>
<path d="M124.473 240.793C123.16 240.793 121.815 240.52 120.55 240.009C118.667 239.243 116.879 237.897 115.376 236.108C115.202 235.904 115.218 235.597 115.408 235.41C115.598 235.222 115.882 235.239 116.056 235.444C117.465 237.096 119.126 238.357 120.882 239.089C122.781 239.873 124.837 240.026 126.657 239.532C126.894 239.464 127.147 239.635 127.211 239.89C127.274 240.146 127.116 240.418 126.878 240.486C126.103 240.691 125.312 240.793 124.489 240.793H124.473Z" fill="#472D3A"/>
<path d="M272.83 166.095C269.571 171.189 265.442 175.039 260.743 177.373C257.594 178.923 254.193 179.69 250.886 179.69C247.991 179.69 245.175 179.11 242.627 177.901C239.748 176.555 236.441 173.744 235.444 169.911C235.761 169.792 236.03 169.673 236.299 169.554C237.169 173.097 240.302 175.72 242.991 176.998C248.212 179.451 254.699 179.247 260.379 176.47C264.793 174.289 268.859 170.542 271.96 165.721C272.245 165.823 272.546 165.959 272.83 166.095Z" fill="#472D3A"/>
<path d="M300.835 185.462C294.159 187.847 288.099 192.225 283.527 198C278.321 204.576 275.062 212.957 274.382 221.577C274.366 221.833 274.16 222.02 273.923 222.02H273.891C273.638 221.986 273.448 221.747 273.48 221.475C274.192 212.668 277.514 204.099 282.846 197.37C287.387 191.612 293.431 187.234 300.06 184.713C300.329 184.968 300.614 185.224 300.867 185.462H300.835Z" fill="#472D3A"/>
<path d="M249.573 281.354C249.336 281.354 249.13 281.149 249.114 280.894C249.098 280.621 249.288 280.383 249.541 280.366L258.939 279.684C260.015 277.18 268.67 258.884 290.63 257.249C290.883 257.232 291.104 257.436 291.12 257.709C291.136 257.982 290.946 258.22 290.693 258.237C267.815 259.941 259.73 280.144 259.651 280.349C259.588 280.519 259.43 280.638 259.256 280.655L249.573 281.371C249.573 281.371 249.557 281.371 249.541 281.371L249.573 281.354Z" fill="#472D3A"/>
<path d="M279.128 260.81C278.954 260.81 278.796 260.708 278.717 260.52C276.739 255.938 275.474 251.049 274.967 246.023C274.936 245.751 275.126 245.512 275.379 245.478C275.616 245.444 275.853 245.649 275.885 245.904C276.375 250.827 277.609 255.614 279.54 260.094C279.65 260.333 279.54 260.64 279.318 260.742C279.255 260.776 279.192 260.793 279.128 260.793V260.81Z" fill="#472D3A"/>
<path d="M335.611 281.609C335.579 281.984 335.532 282.359 335.5 282.734C324.14 288.083 315.771 300.058 314.331 313.363C314.015 313.516 313.714 313.67 313.382 313.84C314.695 299.786 323.555 287.061 335.611 281.626V281.609Z" fill="#472D3A"/>
<path d="M266.376 154.986V163.64C266.376 163.64 262.358 171.647 253.229 174.321C244.1 176.979 239.29 169.33 239.29 169.33V161.17L266.376 155.003V154.986Z" fill="#E59A9A"/>
<path d="M256.203 160.25C255.159 161.272 253.403 161.919 252.09 162.448C247.881 164.117 243.609 165.565 239.29 166.792V162.959C245.002 162.873 250.713 161.954 256.203 160.25Z" fill="#472D3A"/>
<path d="M294.855 124.325C295.203 124.325 290.378 134.665 290.061 135.227C285.457 143.387 277.863 150.491 269.952 154.477C251.568 163.744 231.253 165.209 211.476 159.57C205.322 157.816 199.436 154.715 194.61 150.388C192.032 148.106 189.737 145.431 187.87 142.45C187.633 142.075 187.396 141.7 187.174 141.309C185.624 138.6 184.39 135.687 183.567 132.518C182.001 126.488 181.352 120.355 181.146 114.189C181.146 114.001 181.131 113.797 181.131 113.609C180.846 103.882 181.621 94.019 181.542 84.3089C181.225 36.6446 216.84 12.3184 216.84 12.3184L290.219 99.6406C295.789 88.6359 316.23 88.2952 316.531 106.318C316.847 124.325 294.855 124.325 294.855 124.325Z" fill="#E59A9A"/>
<path d="M180.973 109.11C180.973 109.11 180.166 48.857 213.596 27.2394L227.06 6.74609L210.116 10.2383C210.116 10.2383 180.862 34.4964 176.906 57.7323C172.967 80.9853 180.973 109.11 180.973 109.11Z" fill="#593845"/>
<path d="M212.077 9.19932C211.554 9.48891 211.017 9.81258 210.51 10.1362C210.162 10.3066 209.814 10.5281 209.498 10.7495C195.116 19.6759 183.266 33.3041 175.956 49.3682C172.349 57.3236 169.865 65.8412 168.552 74.5462C168.568 73.3537 168.599 72.1613 168.694 70.9177C170.118 63.3711 172.412 56.029 175.545 49.1468C183.313 32.0264 196.223 17.6828 211.855 8.77344L212.077 9.19932Z" fill="#704753"/>
<path d="M217.425 9.43619C195.86 24.8019 180.814 47.9527 175.83 72.824C175.102 76.3843 174.58 80.0128 174.28 83.6413C173.647 91.4434 173.963 99.1092 174.659 107.184C174.454 106.741 174.28 106.281 174.09 105.821C173.488 98.3256 173.219 90.9153 173.821 83.6073C174.185 79.2633 174.833 74.9193 175.814 70.6435C181.241 46.4536 196.097 24.0523 217.156 9.02734L217.409 9.43619H217.425Z" fill="#704753"/>
<path d="M218.691 16.3185C203.455 26.6247 191.621 43.5747 185.45 64.1191C181.511 77.1169 179.818 91.3753 180.324 106.639C180.324 106.639 180.329 106.65 180.34 106.673C180.482 110.949 180.815 115.276 181.321 119.688C181.147 119.398 180.941 119.126 180.751 118.819C180.735 118.819 180.751 118.802 180.751 118.802C180.229 113.947 179.913 109.194 179.818 104.526C179.501 89.9955 181.242 76.4185 185.007 63.9487C191.225 43.3021 203.123 26.2329 218.454 15.8926L218.691 16.3014V16.3185Z" fill="#704753"/>
<path d="M299.158 114.324C298.936 114.324 298.731 114.154 298.699 113.898C298.256 110.968 299.047 107.868 300.803 105.602C302.559 103.337 305.265 101.94 308.018 101.889C308.271 101.889 308.492 102.11 308.492 102.383C308.492 102.672 308.287 102.894 308.034 102.911C305.55 102.962 303.129 104.205 301.531 106.25C299.949 108.294 299.237 111.105 299.632 113.728C299.68 114.001 299.506 114.273 299.237 114.307C299.205 114.307 299.189 114.307 299.158 114.307V114.324Z" fill="#472D3A"/>
<path d="M305.234 113.131C304.981 113.131 304.76 112.91 304.76 112.637C304.696 109.622 303.747 107.067 302.007 105.244C301.817 105.039 301.817 104.716 302.007 104.528C302.197 104.324 302.497 104.324 302.671 104.528C304.586 106.538 305.63 109.332 305.709 112.62C305.709 112.91 305.503 113.131 305.25 113.148L305.234 113.131Z" fill="#472D3A"/>
<path d="M218.231 121.464C218.737 121.89 219.212 122.452 219.844 122.487C220.477 122.521 221.015 122.027 221.537 121.652C223.404 120.323 226.078 120.493 227.803 122.044C228.784 122.929 229.432 124.548 228.689 125.655C228.056 126.592 226.679 126.609 225.777 125.979C225.556 125.825 225.319 125.621 225.05 125.655C224.749 125.689 224.559 125.996 224.369 126.234C223.088 127.955 220.588 128.142 218.769 127.137C217.25 126.285 215.715 124.497 215.161 122.725C214.418 120.34 216.838 120.306 218.215 121.464H218.231Z" fill="#E58989"/>
<path d="M218.578 127.358C218.578 127.358 218.499 127.358 218.452 127.341C215.984 126.455 214.148 123.627 213.974 120.475C213.784 117.205 215.208 114.258 216.426 112.367C216.553 112.179 216.806 112.128 216.98 112.264C217.154 112.401 217.202 112.673 217.075 112.861C215.92 114.649 214.591 117.409 214.765 120.424C214.923 123.252 216.537 125.756 218.705 126.54C218.91 126.608 219.021 126.864 218.958 127.085C218.91 127.272 218.752 127.375 218.578 127.375V127.358Z" fill="#472D3A"/>
<path d="M224.195 127.409C224.195 127.409 224.068 127.392 224.005 127.357C223.815 127.238 223.736 126.983 223.847 126.778L224.606 125.296C224.669 125.194 224.764 125.109 224.875 125.092C224.986 125.075 225.112 125.092 225.191 125.177C225.65 125.552 227.058 126.421 227.96 125.909C228.878 125.398 228.814 124.036 228.814 124.019C228.814 123.78 228.973 123.576 229.194 123.559C229.416 123.559 229.606 123.729 229.621 123.95C229.621 124.036 229.732 125.875 228.34 126.659C227.185 127.306 225.761 126.574 225.096 126.131L224.543 127.204C224.464 127.34 224.337 127.426 224.195 127.426V127.409Z" fill="#472D3A"/>
<path d="M226.014 133.917C224.559 133.917 223.103 133.355 222.011 132.282C221.821 132.094 221.806 131.788 221.98 131.583C222.154 131.379 222.438 131.362 222.628 131.549C223.957 132.827 225.982 133.27 227.66 132.622C229.337 131.992 230.666 130.289 230.95 128.398C230.998 128.125 231.235 127.938 231.472 127.989C231.726 128.04 231.884 128.278 231.852 128.551C231.504 130.817 229.985 132.776 227.96 133.542C227.327 133.781 226.679 133.9 226.03 133.9L226.014 133.917Z" fill="#472D3A"/>
<path d="M205.004 132.076C205.004 140.014 200.605 146.845 194.293 149.894C191.856 147.714 189.673 145.227 187.853 142.45C187.616 142.075 187.379 141.7 187.157 141.309C185.607 138.6 184.373 135.687 183.55 132.518C181.983 126.488 181.335 120.355 181.129 114.189C181.129 114.001 181.113 113.797 181.113 113.609C182.917 112.928 184.863 112.57 186.872 112.57C196.871 112.57 204.988 121.309 204.988 132.076H205.004Z" fill="#E58989"/>
<path d="M283.938 132.076C283.938 142.842 275.822 151.581 265.823 151.581C255.823 151.581 247.707 142.842 247.707 132.076C247.707 121.309 255.823 112.57 265.823 112.57C275.822 112.57 283.938 121.309 283.938 132.076Z" fill="#E58989"/>
<path d="M192.283 97.3061C192.22 95.807 192.9 94.4101 193.85 93.3369C194.831 92.2807 196.16 91.5482 197.599 91.3268C199.039 91.1053 200.511 91.3949 201.729 92.1104C202.931 92.8429 203.944 93.9672 204.292 95.4322C204.434 96.0455 204.086 96.6588 203.532 96.8121C203.422 96.8462 203.311 96.8462 203.2 96.8462H203.026C201.887 96.7439 201.08 96.7269 200.337 96.778C199.593 96.8121 198.96 96.8802 198.375 96.9824C197.789 97.0676 197.156 97.2039 196.444 97.3913C195.717 97.5787 194.941 97.8512 193.881 98.2771L193.723 98.3453C193.169 98.5667 192.568 98.2771 192.362 97.6809C192.315 97.5616 192.299 97.4424 192.299 97.3231L192.283 97.3061Z" fill="#593845"/>
<path d="M246.82 96.8451C247.105 95.4141 248.038 94.2387 249.177 93.404C250.332 92.5863 251.756 92.1775 253.228 92.2456C254.683 92.3137 256.091 92.91 257.136 93.898C258.18 94.8861 258.939 96.2659 258.923 97.8161C258.923 98.4634 258.417 98.9745 257.816 98.9745C257.737 98.9745 257.658 98.9745 257.579 98.9404L257.405 98.8893C256.25 98.5827 255.474 98.4123 254.747 98.276L252.832 97.9353C252.231 97.8502 251.582 97.8161 250.839 97.8161C250.079 97.8161 249.257 97.9353 248.181 98.1398L248.022 98.1738C247.453 98.2931 246.915 97.8842 246.82 97.271C246.788 97.1177 246.804 96.9643 246.82 96.8281V96.8451Z" fill="#593845"/>
<path d="M203.612 117.97C201.286 119.929 197.932 119.503 196.112 116.999C194.293 114.495 194.688 110.883 197.014 108.924C199.34 106.965 202.694 107.391 204.513 109.895C206.333 112.4 205.937 116.011 203.612 117.97Z" fill="#472D3A"/>
<path d="M250.853 118.566C253.72 118.566 256.043 116.064 256.043 112.978C256.043 109.892 253.72 107.391 250.853 107.391C247.987 107.391 245.664 109.892 245.664 112.978C245.664 116.064 247.987 118.566 250.853 118.566Z" fill="#472D3A"/>
<path d="M310.153 35.4347C310.153 35.6561 310.153 35.8605 310.137 36.065C309.9 41.874 309.062 47.717 307.859 53.3727C307.812 53.6452 307.748 53.9008 307.669 54.1733C306.593 59.1306 305.249 63.9004 303.761 68.4318C303.714 68.6532 303.635 68.8236 303.556 69.011C302.1 73.406 300.534 77.5285 298.983 81.2763C298.904 81.4296 298.841 81.5829 298.778 81.7533C297.085 85.7906 295.424 89.368 293.984 92.3491C293.905 92.5024 293.841 92.6387 293.762 92.775C290.978 98.4307 288.984 101.804 288.984 101.804C288.984 101.804 278.922 98.9758 255.585 83.3546C255.063 82.9968 254.509 82.622 253.955 82.2302C253.497 81.9406 253.054 81.651 252.595 81.3103C251.614 80.646 250.617 79.9646 249.573 79.232C221.759 59.846 213.579 27.2408 213.579 27.2408L214.228 23.5782L214.386 22.6583L215.731 15.0436L215.905 14.1066L217.74 3.74927C217.993 3.66409 218.246 3.59595 218.484 3.52781C218.626 3.49374 218.769 3.4256 218.927 3.40857C221.442 2.67605 223.911 2.09686 226.331 1.61987C226.474 1.5858 226.616 1.56877 226.774 1.5347C229.227 1.05771 231.631 0.71701 233.989 0.461483C234.147 0.444448 234.305 0.427412 234.463 0.427412C239.685 -0.100677 244.7 -0.117713 249.51 0.257061C249.715 0.274096 249.905 0.274096 250.095 0.291131C280.282 2.7953 302.005 20.4778 308.223 26.1335C308.271 26.1505 308.334 26.2186 308.381 26.2697C308.397 26.2868 308.429 26.3038 308.476 26.3549L308.808 26.6445C308.808 26.6445 308.824 26.6616 308.84 26.6616C309.615 27.4281 310.043 27.837 310.043 27.837C310.201 30.3412 310.217 32.8624 310.137 35.4176L310.153 35.4347Z" fill="#593845"/>
<path d="M255.6 83.3564C255.078 82.9987 254.525 82.6239 253.971 82.2321C253.512 81.9425 253.069 81.6529 252.61 81.3122C248.845 77.9222 245.237 74.2767 241.836 70.4267C229.875 56.8668 220.508 40.9218 214.243 23.5801L214.401 22.6602C220.635 40.2234 230.065 56.3898 242.152 70.086C245.918 74.3619 249.921 78.3481 254.113 82.0788C254.604 82.5047 255.094 82.9476 255.585 83.3564H255.6Z" fill="#704753"/>
<path d="M295.945 93.8149C295.802 93.9001 295.676 93.9682 295.534 94.0704C294.964 93.6446 294.394 93.2017 293.793 92.7758C289.458 89.6243 284.712 87.069 280.092 84.5648C279.411 84.2071 278.747 83.8323 278.051 83.4746C272.956 80.7149 267.593 77.6656 262.245 74.1904C253.211 68.3474 244.177 61.3459 236.583 52.5728C227.849 42.471 220.745 29.6605 215.762 15.0444L215.936 14.1074C220.904 28.9791 228.071 42.011 236.931 52.2321C244.541 61.0052 253.543 68.0237 262.593 73.8497C267.909 77.2738 273.209 80.289 278.272 83.0317C278.953 83.4064 279.617 83.7642 280.297 84.1219C284.917 86.6091 289.664 89.1814 294.015 92.3329C294.663 92.8098 295.328 93.2868 295.961 93.7979L295.945 93.8149Z" fill="#704753"/>
<path d="M310.581 93.6789C310.296 93.4745 309.964 93.3041 309.632 93.1508C306.8 89.0964 303.161 85.2635 298.794 81.7543C298.383 81.3795 297.94 81.0558 297.497 80.7151C291.421 76.0475 284.634 72.3338 278.068 68.7224C275.916 67.547 273.701 66.3204 271.549 65.0769C271.518 65.0598 271.454 65.0258 271.423 64.9917C257.104 56.8319 246.488 48.655 237.945 39.2345C228.167 28.4683 221.49 16.186 218.5 3.51182C218.642 3.47775 218.785 3.40961 218.943 3.39258C221.902 15.9645 228.547 28.1617 238.277 38.8768C246.805 48.2802 257.452 56.4571 271.755 64.634C271.755 64.634 271.771 64.634 271.771 64.651C273.938 65.8605 276.138 67.087 278.289 68.2624C284.855 71.8909 291.658 75.6046 297.75 80.2893C298.161 80.5959 298.588 80.9366 298.984 81.2603C303.714 85.0591 307.606 89.2327 310.565 93.6619L310.581 93.6789Z" fill="#704753"/>
<path d="M321.544 108.005C321.164 107.562 320.801 107.085 320.468 106.591C317.019 101.651 314.994 95.7396 313.048 89.9987C312.399 88.1248 311.735 86.1658 311.023 84.2749C308.966 78.8066 306.451 73.679 303.555 68.9944C298.73 61.1923 292.828 54.6508 286.183 49.8298C285.487 49.3188 284.807 48.8588 284.095 48.3818C279.253 45.1622 273.922 42.7602 268.764 40.4094C265.568 38.9614 262.277 37.4453 259.113 35.7929C252.151 32.1133 245.633 27.5138 239.763 22.0796C232.374 15.2655 227.976 8.55364 226.362 1.62033C226.505 1.58626 226.647 1.56923 226.805 1.53516C228.419 8.34922 232.77 14.9759 240.064 21.7048C245.918 27.0879 252.389 31.6874 259.318 35.3499C262.467 37.0194 265.758 38.5014 268.938 39.9494C274.127 42.3003 279.475 44.7363 284.348 47.9389C285.092 48.4329 285.819 48.944 286.547 49.4721C293.097 54.276 298.951 60.7323 303.777 68.4152C306.783 73.2191 309.362 78.4829 311.466 84.0875C312.178 85.9955 312.842 87.9375 313.491 89.8454C315.437 95.5522 317.431 101.412 320.864 106.301C320.99 106.472 321.117 106.659 321.244 106.812C321.323 107.221 321.449 107.63 321.576 108.005H321.544Z" fill="#704753"/>
<path d="M322.604 89.692C322.557 89.8793 322.509 90.0838 322.478 90.2712C321.75 89.6068 321.07 88.9254 320.5 88.2269C315.485 82.2135 313.412 74.224 311.403 66.5071C310.327 62.3676 309.235 58.1258 307.669 54.1737C306.799 51.9421 305.77 49.8127 304.552 47.8366C302.511 44.5488 299.853 41.5847 296.515 38.9102C293.493 36.4741 289.917 34.2766 285.724 32.2494C281.722 30.3415 277.545 28.7402 273.494 27.224C270.061 25.9123 266.517 24.5666 263.116 23.0164C256.17 19.8819 249.572 15.8957 243.465 11.1428C240.269 8.65571 236.251 5.09537 233.988 0.461805C234.146 0.44477 234.305 0.427734 234.463 0.427734C236.725 4.87391 240.633 8.31501 243.718 10.751C249.794 15.4698 256.36 19.439 263.274 22.5564C266.675 24.1066 270.219 25.4353 273.637 26.7471C277.687 28.2973 281.896 29.8815 285.898 31.8235C290.123 33.8677 293.762 36.0994 296.815 38.5865C300.185 41.261 302.875 44.2592 304.932 47.5811C306.055 49.4038 307.004 51.3629 307.843 53.373C309.536 57.5466 310.691 62.0098 311.83 66.3879C313.808 74.0707 315.864 81.9921 320.832 87.9033C321.354 88.5336 321.956 89.1298 322.604 89.692Z" fill="#704753"/>
<path d="M324.947 56.8997C321.529 48.8591 316.45 41.6362 310.122 36.0657C309.615 35.5887 309.109 35.1628 308.587 34.737C307.021 33.4423 305.391 32.2498 303.714 31.1255C296.705 26.4919 288.921 23.2212 281.343 20.0356C273.479 16.7478 265.379 13.3578 258.164 8.46876C254.272 5.81127 251.44 3.13675 249.51 0.257812C249.715 0.274848 249.905 0.274848 250.095 0.291883C251.962 2.98344 254.699 5.52167 258.401 8.04288C265.569 12.8979 273.669 16.2879 281.501 19.5757C289.143 22.7953 296.99 26.0831 304.031 30.7507C305.692 31.8751 307.306 33.0505 308.856 34.3111C309.299 34.6688 309.71 35.0436 310.122 35.4013C316.181 40.7163 321.134 47.4622 324.598 55.0088C324.614 55.0088 324.614 55.0258 324.614 55.0258C324.725 55.6391 324.836 56.2353 324.931 56.8656L324.947 56.8997Z" fill="#704753"/>
</svg>
