<svg width="414" height="543" viewBox="0 0 414 543" fill="none" xmlns="http://www.w3.org/2000/svg">
<path d="M413.542 490.062C413.542 511.627 238.318 564.184 209.777 533.741C159.173 479.764 18.624 523.539 18.624 501.975C18.624 480.41 97.2414 451.016 209.777 451.016C322.313 451.016 413.542 468.497 413.542 490.062Z" fill="#472D3A"/>
<path d="M336.561 282.635C336.561 282.635 360.286 331.416 359.391 367.669C358.496 403.902 316.148 403.206 307.446 371.497C298.744 339.788 280.102 300.287 280.102 300.287L336.58 282.635H336.561Z" fill="#E59A9A"/>
<path d="M52.5368 398.972H271.991L274.009 317.147C307.713 287.294 342.102 291.161 342.102 291.161C329.306 260.613 308.741 235.304 280.407 207.21C277.646 204.465 274.714 201.893 271.667 199.457C271.419 199.244 271.172 199.07 270.943 198.858C258.909 189.345 245.313 182.153 233.755 177.068C218.408 170.281 206.602 167.188 206.602 167.188L135.805 175.985C135.805 175.985 133.178 177.938 128.893 181.398C123.2 185.981 114.593 193.212 105.32 202.009C104.806 202.512 104.292 202.995 103.778 203.498C91.6481 215.157 78.6237 229.368 69.7313 243.772C48.5 278.188 52.5368 398.991 52.5368 398.991V398.972Z" fill="#73C9DD"/>
<path d="M50.9273 425.131C62.0666 440.115 92.7616 467.087 96.2652 470.161C96.4747 470.355 96.5889 470.452 96.5889 470.452L108.661 484.218L109.042 484.662L169.232 410.92L165.348 406.821L165.234 406.686L72.2157 299.243C72.2157 299.243 23.9645 293.443 14.12 323.489C2.94261 357.595 26.5541 392.32 50.9463 425.15L50.9273 425.131Z" fill="#6887FF"/>
<path d="M96.2651 470.162C96.4746 470.356 96.5888 470.452 96.5888 470.452L108.661 484.218L167.671 407.499L165.938 406.01C165.938 406.01 165.691 406.242 165.234 406.667C159.064 412.274 113.688 453.67 96.2651 470.162Z" fill="#472D3A"/>
<path d="M132.36 456.801C107.778 444.331 86.1656 425.885 69.8089 403.457" stroke="#472D3A" stroke-width="0.45" stroke-linecap="round" stroke-linejoin="round"/>
<path d="M136.094 239.152C136.056 239.422 136.228 239.654 136.494 239.674C136.494 239.693 136.513 239.693 136.532 239.693C136.761 239.693 136.951 239.5 136.97 239.287C138.36 227.242 139.865 213.978 144.549 202.01C144.035 202.512 143.521 202.996 143.006 203.499C138.817 215.08 137.37 227.686 136.075 239.171L136.094 239.152Z" fill="#472D3A"/>
<path d="M134.876 310.941C135.123 310.941 135.314 310.748 135.333 310.497C136.17 293.617 136.627 276.468 136.646 259.53C136.646 259.279 136.437 259.066 136.19 259.066C135.942 259.066 135.732 259.279 135.732 259.53C135.694 276.448 135.256 293.579 134.419 310.439C134.419 310.69 134.59 310.922 134.857 310.922C134.857 310.922 134.857 310.922 134.876 310.922V310.941Z" fill="#472D3A"/>
<path d="M135.789 282.152C135.789 282.152 135.865 282.152 135.903 282.152C136.151 282.094 136.284 281.823 136.227 281.591L130.743 261.309C130.667 261.057 130.419 260.922 130.172 260.98C129.924 261.038 129.791 261.309 129.848 261.541L135.332 281.823C135.389 282.036 135.58 282.171 135.77 282.171L135.789 282.152Z" fill="#472D3A"/>
<path d="M261.282 251.757C261.243 252.008 261.377 252.26 261.624 252.318C261.662 252.318 261.7 252.337 261.719 252.337C261.948 252.337 262.119 252.163 262.157 251.97C266.499 232.055 276.781 213.571 291.253 199.457C291.005 199.244 290.758 199.07 290.529 198.857C275.982 213.088 265.661 231.726 261.263 251.757H261.282Z" fill="#472D3A"/>
<g style="mix-blend-mode:multiply" opacity="0.33">
<path d="M145.89 185.034C147.622 187.045 149.431 189.017 151.259 190.931C155.448 195.282 159.809 199.535 164.703 203.054C180.374 214.404 201.434 217.71 219.771 211.716C235.213 206.67 248.428 195.108 255.931 180.51C239.822 173.395 227.445 170.146 227.445 170.146L153.144 179.369C153.144 179.369 150.402 181.419 145.89 185.034Z" fill="#CADBD5"/>
</g>
<path d="M105.122 107.173C105.96 108.739 106.912 110.228 108.074 111.543C108.207 111.736 108.378 111.91 108.55 112.084C109.197 112.8 109.902 113.476 110.644 114.056C114.224 116.841 118.794 118.001 123.25 118.619C127.115 119.18 131.114 119.393 134.846 118.291C139.53 116.899 143.491 113.534 146.385 109.551C149.279 105.569 151.241 100.967 153.069 96.3652C154.459 92.8656 155.735 89.3274 156.972 85.7698C157.029 85.5765 157.106 85.3831 157.163 85.1704C157.524 84.1264 157.886 83.0823 158.21 82.0576C159.771 77.3786 161.199 72.6802 162.532 67.9433C162.57 67.7306 162.647 67.5372 162.704 67.3439C164.227 61.9882 165.617 56.6325 166.969 51.2188C167.026 51.0254 167.083 50.8321 167.121 50.6387C168.054 46.9651 168.949 43.2529 169.825 39.56C169.863 39.3666 169.94 39.1539 169.978 38.9412C170.796 35.4997 171.596 32.0388 172.415 28.5779C172.567 27.9592 172.72 27.3405 172.891 26.7217C172.929 26.5091 173.005 26.3157 173.062 26.103C173.805 23.2415 174.681 20.3993 175.404 17.5571C175.443 17.3444 175.519 17.1317 175.557 16.8997C176.376 13.5935 176.966 10.2486 176.947 6.8457C176.909 6.8457 176.89 6.8457 176.871 6.86504C161.085 12.4141 144.69 19.3359 128.677 23.7055C126.772 24.2276 124.868 24.8269 123.002 25.581C122.64 25.7163 122.279 25.871 121.917 26.0064C121.574 26.161 121.231 26.3157 120.888 26.5091C120.584 26.6444 120.298 26.7991 119.994 26.9344C118.051 27.9785 116.28 29.2546 114.833 30.8594C114.7 31.014 114.586 31.1494 114.472 31.2847C114.053 31.7681 113.653 32.2901 113.329 32.8315C113.024 33.3149 112.758 33.7982 112.51 34.3009C112.396 34.4749 112.32 34.6683 112.263 34.8616C111.71 36.1184 111.349 37.4331 111.139 38.8059C111.082 39.0573 111.063 39.3279 111.006 39.5986C110.987 39.8113 110.968 40.024 110.949 40.2753C110.911 40.7394 110.892 41.1841 110.892 41.6481C110.835 44.1616 111.196 46.7138 111.787 49.15C113.253 55.1244 116.185 60.7121 120.184 65.3331C118.07 66.2611 116.033 67.4792 114.11 68.9487C113.938 69.0647 113.767 69.1807 113.615 69.316H113.596C111.825 70.7274 110.206 72.3129 108.759 74.0337C108.626 74.1884 108.511 74.343 108.397 74.4977C106.227 77.1852 104.475 80.1628 103.389 83.3143C103.351 83.4497 103.313 83.5463 103.256 83.6817C103.199 83.8943 103.123 84.0877 103.066 84.281C102.571 85.9052 102.209 87.5679 102.018 89.2694C101.98 89.4821 101.961 89.7334 101.942 89.9461C101.333 95.8625 102.437 101.992 105.198 107.251L105.122 107.173Z" fill="#704753"/>
<g opacity="0.46">
<path d="M110.814 41.5896C116.374 55.7232 126.923 68.0007 140.024 75.3479L140.31 74.8259C126.961 67.382 116.279 54.7371 110.871 40.2168C110.833 40.6808 110.814 41.1255 110.814 41.5896Z" fill="#593845"/>
<path d="M113.538 69.2564C114.205 69.6238 114.852 70.0298 115.537 70.4745C117.004 71.4412 118.451 72.524 119.841 73.5874C121.916 75.1535 124.049 76.7583 126.372 78.0344C128.276 79.0784 131.513 80.5092 135.017 80.5092C136.388 80.5092 137.816 80.2965 139.206 79.7551L139.016 79.2138C134.255 81.0506 129.228 78.9624 126.639 77.5317C124.373 76.2749 122.24 74.6895 120.203 73.1427C118.794 72.0986 117.346 70.9965 115.861 70.0298C115.252 69.6238 114.642 69.2564 114.052 68.9277C113.881 69.0437 113.709 69.1597 113.557 69.2951L113.538 69.2564Z" fill="#593845"/>
<path d="M108.32 74.4191C110.205 75.1925 111.919 76.1786 113.423 77.0873C114.528 77.764 115.632 78.4794 116.698 79.1754C119.383 80.9156 122.163 82.675 125.134 83.9318C126.886 84.6665 129.685 85.5752 132.712 85.5752C134.597 85.5752 136.578 85.2272 138.463 84.2991L138.215 83.7771C133.436 86.1166 128.104 84.5505 125.362 83.4097C122.411 82.1723 119.669 80.3935 117.022 78.6921C115.937 77.996 114.832 77.2613 113.69 76.5846C112.224 75.6952 110.529 74.7478 108.682 73.9551C108.549 74.1098 108.434 74.2644 108.32 74.4191Z" fill="#593845"/>
<path d="M102.989 84.2031C106.873 87.2773 111.462 90.3515 116.546 92.4783C121.135 94.4118 125.819 95.3785 130.256 95.3785C133.265 95.3785 136.14 94.9145 138.844 94.0444L138.653 93.5031C132.103 95.6685 124.315 95.1272 116.756 91.9563C111.633 89.8101 107.044 86.7166 103.179 83.623C103.122 83.8164 103.046 84.0097 102.989 84.2031Z" fill="#593845"/>
<path d="M101.865 89.8681C107.597 94.7405 114.281 98.472 121.421 100.773C124.639 101.817 127.572 102.339 130.18 102.339C133.151 102.339 135.721 101.662 137.873 100.328L137.568 99.8448C133.665 102.262 128.295 102.397 121.573 100.232C114.395 97.9113 107.692 94.1411 101.942 89.1914C101.904 89.4041 101.885 89.6554 101.865 89.8681Z" fill="#593845"/>
<path d="M127.677 111.543C127.811 111.736 127.982 111.91 128.153 112.084C136.76 110.963 145.576 111.543 153.993 113.766L154.126 113.206C145.538 110.905 136.494 110.344 127.677 111.543Z" fill="#593845"/>
</g>
<path d="M129.495 114.057C129.914 125.116 129.305 136.369 130.009 147.448C130.009 147.66 130.028 147.873 130.047 148.105C130.257 151.604 130.638 155.123 131.19 158.584C131.19 158.623 131.19 158.662 131.209 158.72C131.78 162.142 132.523 165.545 133.57 168.89C134.675 172.467 136.255 175.753 138.216 178.77C138.502 179.195 138.788 179.62 139.092 180.026C141.453 183.352 144.31 186.31 147.509 188.824C149.337 190.293 151.602 191.743 154.059 193.116C159.619 196.21 166.226 198.878 171.425 200.115C193.018 205.2 213.031 203.75 232.719 195.281C234.985 194.334 237.232 193.251 239.498 192.091C245.439 189.017 250.847 183.971 255.36 178.267C257.988 174.961 260.311 171.423 262.234 167.942C262.615 167.285 269.051 158.778 268.346 156.709C268.346 156.709 295.214 161.871 293.195 134.029C291.729 113.573 265.071 110.035 258.73 122.796C258.73 122.796 270.536 88.1481 238.394 61.3309C221.314 47.0619 196.541 44.1231 175.233 46.8879C166.207 48.048 157.239 50.9482 149.908 56.4392C132.447 69.5482 128.676 93.4265 129.457 114.076L129.495 114.057Z" fill="#E59A9A"/>
<path d="M272.517 143.212C271.908 140.061 272.726 136.677 274.669 134.164C276.611 131.65 279.677 130.045 282.818 129.891" stroke="#472D3A" stroke-width="0.56" stroke-linecap="round" stroke-linejoin="round"/>
<path d="M276.058 132.926C278.477 135.188 279.638 138.301 279.81 141.626" stroke="#472D3A" stroke-width="0.56" stroke-linecap="round" stroke-linejoin="round"/>
<path d="M176.166 163.475C176.794 163.92 177.403 164.558 178.165 164.558C178.927 164.558 179.555 163.978 180.164 163.514C182.373 161.909 185.591 161.967 187.743 163.63C188.961 164.577 189.837 166.395 188.98 167.69C188.257 168.792 186.6 168.889 185.477 168.212C185.191 168.038 184.906 167.826 184.582 167.864C184.22 167.922 184.011 168.27 183.801 168.56C182.335 170.59 179.326 170.938 177.08 169.875C175.213 168.986 173.271 167.033 172.529 165.041C171.519 162.373 174.433 162.218 176.166 163.456V163.475Z" fill="#E58989"/>
<path d="M174.584 153.787C172.546 156.146 171.137 159.336 171.461 162.507C171.785 165.678 173.822 168.791 176.85 169.68" stroke="#472D3A" stroke-width="0.47" stroke-linecap="round" stroke-linejoin="round"/>
<path d="M183.628 169.449L184.485 167.728C184.485 167.728 186.808 169.352 188.389 168.444C189.76 167.632 189.569 165.775 189.569 165.775" stroke="#472D3A" stroke-width="0.47" stroke-linecap="round" stroke-linejoin="round"/>
<path d="M131.001 156.416C131.02 156.648 131.039 156.88 131.058 157.093C131.097 157.596 131.135 158.098 131.192 158.562C131.192 158.601 131.192 158.64 131.211 158.698C131.782 162.12 132.525 165.523 133.572 168.868C134.676 172.445 136.257 175.731 138.218 178.748C138.504 179.173 138.789 179.598 139.094 180.004C141.455 183.33 144.311 186.288 147.51 188.802C149.338 190.271 151.604 191.721 154.061 193.094C158.364 188.84 160.954 182.808 160.668 176.234C160.459 170.627 158.174 165.581 154.632 161.811C152.709 159.78 150.443 158.137 147.91 156.958C144.864 155.527 141.455 154.811 137.894 154.966C135.457 155.082 133.134 155.565 130.982 156.435L131.001 156.416Z" fill="#E58989"/>
<path d="M212.251 174.012C212.727 185.458 221.677 194.564 232.721 195.261C234.987 194.313 237.233 193.23 239.499 192.07C245.44 188.996 250.848 183.95 255.361 178.246C255.837 176.293 256.027 174.244 255.932 172.136C255.437 159.878 245.25 150.346 233.178 150.868C228.17 151.081 223.619 152.995 220.039 156.03C220.039 156.03 220.02 156.05 220.02 156.069C219.544 156.456 219.087 156.901 218.649 157.345C214.441 161.599 211.946 167.515 212.232 173.992L212.251 174.012Z" fill="#E58989"/>
<path d="M158.913 157.753C156.209 160.111 152.134 159.783 149.811 157.037C147.488 154.292 147.812 150.154 150.516 147.795C153.219 145.436 157.294 145.765 159.617 148.511C161.94 151.256 161.617 155.394 158.913 157.753Z" fill="#472D3A"/>
<path d="M218.419 153.208C217.391 156.707 213.773 158.718 210.326 157.674C206.88 156.63 204.9 152.957 205.928 149.438C206.956 145.938 210.574 143.927 214.04 144.971C217.486 146.015 219.466 149.689 218.438 153.208H218.419Z" fill="#472D3A"/>
<path d="M215.735 120.979C219.867 121.133 223.599 123.975 225.236 127.765C225.693 128.828 225.96 130.162 225.236 131.071C224.494 132.019 223.104 132.019 221.904 131.883C218.286 131.458 214.706 130.569 211.431 128.964C210.346 128.422 209.222 127.765 208.689 126.644C207.375 123.879 209.775 121.501 213.278 121.075" fill="#704753"/>
<path d="M152.059 124.826C148.232 125.039 144.842 127.746 143.395 131.303C142.995 132.289 142.767 133.527 143.452 134.358C144.157 135.228 145.451 135.19 146.537 135.035C149.869 134.571 153.163 133.681 156.172 132.135C157.162 131.613 158.19 130.975 158.666 129.931C159.828 127.34 157.562 125.194 154.306 124.865" fill="#704753"/>
<path d="M191.189 172.699C190.713 173.743 189.838 174.536 188.866 175.135C185.877 176.992 181.916 177.069 178.851 175.348L191.189 172.719V172.699Z" fill="#FCE3E7"/>
<path d="M136.597 63.2449C136.597 63.2449 140.158 77.1465 158.172 82.0381C159.485 82.4055 160.875 82.7149 162.38 82.9662C164.741 83.3722 167.14 83.4883 169.463 83.3529C169.482 83.3336 169.52 83.3336 169.577 83.3336C171.139 83.2756 172.719 83.0822 174.224 82.8115C174.262 82.8115 174.338 82.7922 174.395 82.7729C188.828 80.1434 200.577 70.1473 200.577 70.1473C200.577 70.1473 192.96 87.0072 203.852 93.0976C209.717 96.3651 218.476 94.2577 225.35 91.6475C225.521 91.5701 225.712 91.4928 225.883 91.4348C231.501 89.2306 235.69 86.7365 235.69 86.7365C235.69 86.7365 234.604 115.758 242.773 122.95C250.942 130.143 258.749 122.776 258.749 122.776C258.92 122.602 259.111 122.428 259.282 122.274C259.434 122.138 259.568 122.022 259.701 121.906C262.367 119.605 265.185 118.271 267.946 117.556C268.136 117.498 268.308 117.44 268.498 117.421C270.707 116.899 272.878 116.763 274.858 116.86C275.068 116.879 275.258 116.879 275.448 116.899C281.161 117.305 285.445 119.47 285.445 119.47L285.502 119.412C285.674 119.199 285.845 118.948 286.016 118.716C294.033 108.488 299.783 96.1138 300.831 83.1982C300.907 82.2508 300.983 81.2648 301.002 80.298C301.021 79.196 301.021 78.0745 300.983 76.9338C300.336 61.4854 291.577 46.0177 277.524 40.0626C275.601 39.2312 273.582 38.5738 271.773 37.5491C271.45 37.3751 271.202 37.1817 270.897 36.969C270.897 36.9884 270.859 36.969 270.859 36.969C270.364 36.6597 269.926 36.3117 269.488 35.9056C268.955 35.4029 268.479 34.8422 268.098 34.2622C267.946 34.0882 267.851 33.9142 267.718 33.7208C266.423 31.6713 265.604 29.1965 264.633 26.915C264.328 26.219 263.985 25.5229 263.643 24.8655C263.528 24.6529 263.433 24.4595 263.3 24.2468C262.481 22.6807 261.548 21.2113 260.482 19.7999C260.367 19.6065 260.234 19.4132 260.025 19.2198C255.702 13.4387 249.742 8.8951 243.135 5.74355C242.716 5.51154 242.259 5.31819 241.84 5.14418C238.927 3.82942 235.861 2.78535 232.795 2.01196C225.464 0.194503 217.924 -0.269529 210.383 0.136499H210.364L210.345 0.155834C209.755 0.155834 209.165 0.194503 208.575 0.233172H208.555C202.843 0.619866 197.111 1.47059 191.494 2.55333C186.62 3.4814 181.497 4.71881 176.87 6.76829C176.832 6.76829 176.813 6.76829 176.794 6.78762C172.548 8.66309 168.759 11.2346 165.979 14.8695L162.189 21.1146L161.789 21.8107H161.77L157.81 28.3458L157.429 28.9645L149.679 41.7254H149.66L149.298 42.3247L145.433 48.6665L145.109 49.2079L137.949 61.002L137.607 61.5627L136.578 63.2255L136.597 63.2449Z" fill="#704753"/>
<g opacity="0.48">
<path d="M268.213 37.7998C280.724 44.9923 289.749 53.7122 294.986 63.7276C298.185 69.876 299.994 76.4691 300.87 83.2169C300.946 82.2695 301.022 81.2834 301.041 80.3167C300.032 74.497 298.299 68.8126 295.5 63.4762C290.206 53.3642 281.124 44.5669 268.499 37.3164L268.213 37.8191V37.7998Z" fill="#593845"/>
<path d="M254.446 39.6552C262.158 45.2236 268.461 53.4215 273.164 64.0556C277.429 73.6456 279.905 84.1443 281.942 94.0823C283.523 101.778 285.16 110.459 285.522 119.411C285.693 119.198 285.865 118.947 286.036 118.715C285.636 109.975 284.037 101.488 282.494 93.947C280.438 83.9896 277.943 73.4716 273.659 63.8042C268.899 53.0928 262.539 44.7983 254.77 39.1719L254.427 39.6552H254.446Z" fill="#593845"/>
<path d="M239.688 44.7791C242.049 47.0799 242.773 50.5408 243.458 53.9244C243.535 54.3304 243.63 54.7558 243.706 55.1811C245.591 64.0364 249.59 72.389 255.264 79.3881C256.54 80.9542 257.93 82.4623 259.244 83.9318C260.672 85.4979 262.138 87.1027 263.49 88.7848C269.85 96.6927 273.83 106.669 274.858 116.878C275.067 116.897 275.258 116.897 275.448 116.917C274.42 106.592 270.345 96.4413 263.909 88.4174C262.557 86.7353 261.091 85.1112 259.663 83.5451C258.349 82.0756 256.959 80.5482 255.702 79.0208C250.066 72.1183 246.105 63.8237 244.258 55.0458C244.182 54.6398 244.087 54.2144 244.011 53.789C243.306 50.3475 242.583 46.7899 240.088 44.373L239.688 44.7791Z" fill="#593845"/>
<path d="M222.247 53.4234C223.028 60.7513 228.264 66.6483 232.511 70.3219C234.948 72.4101 237.557 74.3049 240.127 76.1223C242.869 78.0945 245.744 80.1439 248.315 82.4448C257.226 90.372 263.815 102.166 267.985 117.576C268.175 117.518 268.347 117.46 268.537 117.441C264.348 101.934 257.683 90.024 248.677 82.0194C246.068 79.6992 243.212 77.6498 240.451 75.6583C237.918 73.8408 235.291 71.946 232.872 69.8772C228.721 66.3003 223.599 60.5193 222.837 53.3848L222.266 53.4428L222.247 53.4234Z" fill="#593845"/>
<path d="M216.972 56.748C219.181 64.6559 225.636 70.4756 232.263 75.58C232.815 76.0054 233.386 76.4501 233.977 76.8948C239.86 81.3804 245.935 86.0401 249.381 92.5945C251.552 96.7515 252.542 101.469 253.475 106.013C253.875 107.966 254.313 109.996 254.827 111.949C255.684 115.216 257.074 119.044 259.302 122.254C259.454 122.119 259.587 122.003 259.721 121.887C257.569 118.754 256.198 115.003 255.379 111.794C254.865 109.86 254.446 107.85 254.027 105.897C253.075 101.276 252.085 96.5388 249.895 92.3238C246.392 85.634 240.26 80.955 234.319 76.4114C233.748 75.986 233.177 75.5413 232.606 75.116C226.036 70.0696 219.676 64.3272 217.525 56.5547L216.972 56.7287V56.748Z" fill="#593845"/>
<path d="M201.53 66.7449C204.157 70.7665 208.308 73.4927 212.307 76.1222C216.63 78.9644 221.123 81.9033 223.523 86.4663C224.38 88.0904 224.932 89.8498 225.351 91.6673C225.522 91.59 225.712 91.5126 225.884 91.4546C225.465 89.6371 224.875 87.8584 223.999 86.1956C221.523 81.4973 216.991 78.5391 212.612 75.6582C208.651 73.0673 204.557 70.3798 201.987 66.4355L201.511 66.7642L201.53 66.7449Z" fill="#593845"/>
<path d="M121.859 25.9678C124.753 26.4319 127.723 26.6252 130.675 26.6252C136.749 26.6252 142.728 25.7938 148.041 24.8464C152.877 23.9764 157.466 22.9903 161.789 21.8109H161.808C166.625 20.5541 171.119 19.104 175.365 17.4799C178.755 16.1845 181.973 14.7537 185.039 13.207C188.009 11.7182 190.941 10.0361 193.779 8.41196C196.997 6.57516 200.329 4.68037 203.699 3.03692C205.87 1.97351 208.117 1.00678 210.383 0.136719C209.793 0.136719 209.202 0.175388 208.612 0.214057H208.593C206.86 0.92944 205.146 1.68349 203.452 2.51488C200.062 4.15833 196.73 6.07246 193.512 7.90925C190.675 9.51403 187.761 11.1961 184.791 12.7043C181.84 14.193 178.755 15.5658 175.518 16.8225C171.367 18.4273 166.949 19.8581 162.208 21.1148C157.733 22.3329 152.973 23.3577 147.927 24.2857C140.424 25.6005 131.551 26.7412 122.963 25.5425C122.601 25.6778 122.239 25.8325 121.878 25.9678H121.859Z" fill="#593845"/>
<path d="M119.935 26.8947C128.428 28.6348 137.11 29.4855 145.774 29.4855C149.678 29.4855 153.562 29.3115 157.409 28.9635C162.588 28.4995 167.729 27.7261 172.832 26.6433C181.344 24.8452 189.703 22.1577 197.663 18.6388C200.081 17.5754 202.48 16.4153 204.822 15.2745C209.24 13.1477 213.829 10.9629 218.513 9.31946C226.434 6.55461 234.832 5.39452 243.172 5.74255C242.753 5.51053 242.296 5.31719 241.877 5.14317C233.899 4.94983 225.882 6.14858 218.342 8.77809C213.619 10.4215 209.03 12.6257 204.594 14.7718C202.271 15.8739 199.852 17.0533 197.453 18.0974C189.608 21.5583 181.42 24.2072 173.042 26.0053C168.034 27.088 162.931 27.8614 157.828 28.3254C145.489 29.4662 132.978 28.8668 120.849 26.45C120.544 26.5853 120.259 26.74 119.954 26.8753L119.935 26.8947Z" fill="#593845"/>
<path d="M114.413 31.2451C121.839 35.8661 129.817 39.7524 138.481 41.3958C141.852 42.0532 145.279 42.3239 148.688 42.3239H149.278C156.266 42.2659 163.216 41.0672 169.767 39.501C172.185 38.921 174.527 38.3023 176.812 37.6836C183.324 35.8661 189.855 33.836 196.177 31.8445C208.383 28.0356 221.007 24.0913 233.746 21.7712C243.248 20.031 252.197 19.393 260.48 19.799C260.366 19.6057 260.233 19.4123 260.023 19.219C251.817 18.8323 243 19.509 233.613 21.2104C220.817 23.5306 208.192 27.4942 195.987 31.3031C189.646 33.2753 183.115 35.3248 176.622 37.1229C174.451 37.7223 172.185 38.3216 169.881 38.8823C163.426 40.4291 156.533 41.6279 149.621 41.7245H149.602C145.888 41.7825 142.175 41.5312 138.538 40.8351C129.989 39.211 122.067 35.3634 114.717 30.8004C114.584 30.9551 114.47 31.0905 114.356 31.2258L114.413 31.2451Z" fill="#593845"/>
<path d="M112.203 34.823C122.048 41.8028 133.358 46.6945 145.126 49.2273C151.353 50.5614 157.713 51.2575 164.072 51.2575C165.024 51.2575 165.996 51.2382 166.948 51.1995C170.889 51.0835 174.793 50.6775 178.677 50.0007C192.216 47.6612 205.126 42.1315 217.598 36.8145C223.806 34.1463 230.242 31.3815 236.678 29.0613C244.466 26.2384 254.234 23.4156 263.679 24.885C263.564 24.6723 263.469 24.479 263.336 24.2663C253.91 22.9322 244.237 25.7357 236.487 28.5393C230.032 30.8787 223.577 33.6243 217.351 36.2925C204.917 41.6288 192.063 47.1199 178.582 49.4594C174.793 50.1167 170.927 50.5034 167.081 50.6194C159.826 50.8708 152.533 50.2328 145.431 48.686C133.625 46.1725 122.314 41.2808 112.432 34.2623C112.317 34.4363 112.241 34.6297 112.184 34.823H112.203Z" fill="#593845"/>
<path d="M110.948 39.56C117.175 48.3379 125.648 55.5691 135.664 60.6348C136.331 60.9634 136.959 61.2921 137.626 61.5822C145.623 65.3331 154.058 67.4792 162.513 67.9239C163.636 67.9819 164.76 68.0013 165.883 68.0013C168.168 68.0013 170.434 67.8659 172.7 67.6339C188.752 65.8551 203.585 58.2759 217.924 50.9481C219.599 50.078 221.294 49.208 222.97 48.3766C237.308 41.1261 252.598 34.5523 268.117 34.2816C267.965 34.1076 267.87 33.9336 267.736 33.7402C252.256 34.0883 237.022 40.6427 222.722 47.8545C221.047 48.7246 219.352 49.556 217.676 50.4261C203.376 57.7539 188.581 65.2944 172.643 67.0539C169.33 67.4212 166.016 67.5179 162.684 67.3052C154.192 66.8412 145.756 64.6564 137.968 61.0021C127.286 56.0524 117.841 48.3572 111.082 38.7479C111.024 38.9993 111.005 39.2699 110.948 39.5406V39.56Z" fill="#593845"/>
<path d="M169.557 83.353C171.119 83.295 172.699 83.1017 174.204 82.831C174.242 82.831 174.318 82.8116 174.375 82.7923C178.355 81.7482 182.372 80.4142 186.105 78.4613C190.598 76.1025 194.673 72.8736 198.615 69.7607C199.567 69.0067 200.519 68.2526 201.471 67.5179C213.924 57.8893 227.615 50.0394 242.201 44.239C253.55 39.7147 263.109 37.5685 271.772 37.5879C271.449 37.4138 271.201 37.2205 270.897 37.0078C270.897 37.0271 270.858 37.0078 270.858 37.0078C262.347 37.1432 253.017 39.328 241.991 43.7169C227.368 49.5173 213.62 57.3866 201.128 67.0539C200.176 67.7886 199.205 68.5427 198.272 69.2967C194.35 72.3903 190.294 75.5998 185.838 77.9393C180.697 80.6268 175.022 82.1929 169.538 83.353H169.557Z" fill="#593845"/>
</g>
<path d="M267.983 254.987L260.367 236.02C260.367 236.02 149.678 275.714 135.15 302.743L267.964 254.987H267.983Z" fill="#FEFFFF"/>
<path d="M154.773 302.743C154.773 302.743 105.304 241.993 58.6136 228.633L52.387 241.278L154.773 302.743Z" fill="#FEFFFF"/>
<path d="M0.0194092 228.633L39.4354 350.499L135.824 427.896L136.985 428.824L291.945 372.618C277.759 324.881 249.73 245.145 249.73 245.145L116.135 302.472L115.525 302.743L0.000335693 228.652L0.0194092 228.633Z" fill="#C8E895"/>
<g style="mix-blend-mode:multiply" opacity="0.35">
<path d="M19.6434 228.633L59.0595 350.499L155.429 427.896L135.759 302.472L135.149 302.743L19.6434 228.633Z" fill="#B4B5E1"/>
</g>
<path d="M135.15 302.742L156.609 428.824" stroke="#704753" stroke-width="0.5" stroke-linecap="round" stroke-linejoin="round"/>
<path d="M43.2247 246.73C43.2247 246.73 65.8842 251.467 66.5697 257.442C67.2552 263.416 61.2 263.938 61.2 263.938C61.2 263.938 71.749 265.35 72.4345 270.783C73.12 276.235 67.2552 276.235 67.2552 276.235C67.2552 276.235 74.8718 277.473 75.3859 282.732C75.9 287.991 63.4469 288.532 59.4672 287.469C55.4875 286.425 44.7671 285.013 45.624 274.128C45.624 274.128 37.836 269.913 41.6443 259.897C41.6443 259.897 30.9239 249.534 43.2057 246.73H43.2247Z" fill="#E59A9A"/>
<path d="M61.7529 263.822C55.1074 264.692 47.8526 262.565 41.6641 259.975" stroke="#472D3A" stroke-width="0.45" stroke-linecap="round" stroke-linejoin="round"/>
<path d="M67.6729 276.1C60.3228 276.486 52.7253 276.834 45.8322 274.186" stroke="#472D3A" stroke-width="0.45" stroke-linecap="round" stroke-linejoin="round"/>
<path d="M93.5695 453.593C96.9399 457.499 125.236 508.91 131.976 507.324C138.622 505.777 150.847 501.891 154.655 496.207C154.712 496.149 154.75 496.071 154.788 495.994L245.578 512.061C245.578 512.061 282.919 494.66 292.782 451.486C302.665 408.273 306.797 331.901 258.545 318.192C204.982 302.995 162.31 385.361 142.068 406.958L116.134 436.462H116C115.353 436.482 112.611 436.636 109.66 437.777C103.357 440.233 91.7606 451.486 93.5695 453.574V453.593Z" fill="#6887FF"/>
<path d="M174.925 495.859C174.925 495.859 182.656 500.094 192.291 506.068C192.557 506.242 192.786 506.377 193.052 506.551C196.975 508.968 201.336 511.559 205.906 514.073C206.172 514.227 206.439 514.363 206.724 514.498C211.713 517.243 216.912 519.892 221.977 522.135C222.262 522.27 222.548 522.387 222.833 522.483C228.774 525.074 234.525 527.046 239.571 527.955C239.895 528.013 240.237 528.052 240.542 528.11C263.563 532.112 265.429 525.422 267.791 523.547C270.97 520.956 277.94 516.045 279.196 509.993C279.749 507.209 272.627 501.157 265.087 495.995C264.82 495.821 264.573 495.666 264.306 495.453C263.259 494.777 262.211 494.081 261.183 493.404C258.898 491.992 254.252 488.879 248.616 485.09C248.349 484.916 248.083 484.742 247.816 484.549C243.989 481.977 239.723 479.115 235.458 476.196C235.191 476.022 234.944 475.867 234.696 475.674C232.411 474.127 230.126 472.58 227.918 471.072C223.976 474.127 217.273 479.038 209.143 483.678C208.438 484.104 207.714 484.51 206.991 484.916C198.27 489.75 187.987 493.713 178.048 495.221L176.562 495.492L174.925 495.84V495.859Z" fill="#F4C43C"/>
<path d="M265.086 495.995C255.394 505.333 247.016 516.277 240.541 528.11C240.218 528.071 239.894 528.013 239.57 527.955C246.102 515.987 254.537 504.908 264.305 495.473C264.553 495.666 264.838 495.821 265.086 495.995Z" fill="#F7E9E9"/>
<path d="M248.615 485.11C237.971 495.937 229.174 508.621 222.814 522.503C222.528 522.387 222.243 522.271 221.957 522.136C228.355 508.234 237.152 495.473 247.835 484.588C248.082 484.781 248.368 484.936 248.615 485.11Z" fill="#F7E9E9"/>
<path d="M235.476 476.235C224.26 487.585 214.511 500.558 206.704 514.518C206.418 514.383 206.152 514.228 205.904 514.093C213.692 500.114 223.46 487.121 234.714 475.752C234.961 475.926 235.228 476.081 235.476 476.255V476.235Z" fill="#F7E9E9"/>
<path d="M192.292 506.068C192.558 506.242 192.787 506.377 193.053 506.551C197.947 498.624 203.336 490.987 209.182 483.717C208.477 484.142 207.754 484.548 207.03 484.954C201.717 491.683 196.805 498.759 192.311 506.068H192.292Z" fill="#F7E9E9"/>
<path d="M278.436 411.695C278.436 411.695 246.522 480.971 174.412 495.994" stroke="#472D3A" stroke-width="0.45" stroke-linecap="round" stroke-linejoin="round"/>
<path d="M43.1585 496.73C43.5775 503.187 50.0897 509.297 53.003 512.449C55.1738 514.75 56.1639 521.923 80.5371 521.188C80.8799 521.188 81.2226 521.188 81.5653 521.169C86.916 520.975 93.1616 519.777 99.6548 517.978C99.9595 517.901 100.283 517.824 100.588 517.727C106.148 516.18 111.918 514.189 117.459 512.101C117.763 512.004 118.068 511.888 118.354 511.772C123.438 509.858 128.312 507.808 132.73 505.894C133.016 505.759 133.301 505.643 133.587 505.508C144.402 500.751 152.076 496.768 152.076 496.768L123.438 453.42C123.438 453.42 116.849 456.668 107.995 461.018C107.709 461.154 107.424 461.308 107.119 461.444C103.063 463.435 98.5885 465.639 94.0566 467.863C93.771 467.998 93.4853 468.134 93.1997 468.269C88.3822 470.647 83.5647 472.987 79.2232 475.094C78.9376 475.249 78.6329 475.384 78.3473 475.519C71.9684 478.613 66.7129 481.127 64.1423 482.287C62.9808 482.809 61.8002 483.369 60.6196 483.93C60.334 484.085 60.0294 484.22 59.7437 484.355C51.2131 488.59 42.9872 493.791 43.1585 496.749V496.73Z" fill="#F4C43C"/>
<path d="M79.3679 484.336C88.0508 495.434 95.1533 507.982 100.161 521.187C100.504 521.187 100.847 521.187 101.189 521.168C96.1434 507.827 89.0029 495.124 80.2438 483.91C79.9581 484.065 79.6535 484.2 79.3679 484.336Z" fill="#F7E9E9"/>
<path d="M97.9709 475.5C107.435 488.26 114.708 502.703 119.297 517.978C119.602 517.9 119.926 517.823 120.23 517.726C115.603 502.394 108.33 487.912 98.8468 475.074C98.5612 475.229 98.2565 475.364 97.9709 475.5Z" fill="#F7E9E9"/>
<path d="M112.823 468.25C122.801 481.649 131.046 496.498 137.101 512.101C137.406 512.004 137.71 511.888 137.996 511.772C131.941 496.15 123.677 481.281 113.68 467.844C113.394 467.979 113.109 468.114 112.823 468.25Z" fill="#F7E9E9"/>
<path d="M127.638 461C137.749 474.824 146.355 489.77 153.229 505.489C152.944 505.624 152.658 505.74 152.373 505.876C145.461 490.157 136.873 475.25 126.762 461.425L127.638 461Z" fill="#F7E9E9"/>
<path d="M134.938 436.812L181.323 494.333L166.623 498.2L134.291 436.561" fill="#472D3A"/>
<path d="M113.193 453.594C116.563 457.499 144.859 508.91 151.6 507.325C158.245 505.778 170.47 501.892 174.278 496.207C167.29 485.109 140.956 443.327 137.071 438.319C136.519 437.623 136.043 437.004 135.624 436.482C134.977 436.502 132.235 436.656 129.283 437.797C122.98 440.253 111.384 451.505 113.193 453.594Z" fill="#9FBCF3"/>
<path d="M338.941 336.25C338.941 336.25 307.827 291.065 295.812 284.414C283.797 277.763 261.956 271.789 258.719 275.694C255.082 280.083 264.412 285.806 264.412 285.806C264.412 285.806 255.406 284.414 255.406 289.132C255.406 293.849 263.86 297.446 263.86 297.446C263.86 297.446 257.672 294.99 256.853 300.81C256.472 303.575 265.098 309.143 271.21 312.913C275.285 315.427 282.426 321.015 282.426 321.015C282.426 321.015 266.012 314.402 264.412 317.96C262.546 322.155 288.709 339.035 288.709 339.035C288.709 339.035 296.631 390.31 316.015 395.298C335.399 400.287 351.508 392.804 354.783 381.726C358.059 370.647 338.96 336.27 338.96 336.27L338.941 336.25Z" fill="#E59A9A"/>
<path d="M339.359 337.158C339.359 337.158 319.899 307.924 306.056 293.771" stroke="#472D3A" stroke-width="0.46" stroke-linecap="round" stroke-linejoin="round"/>
<path d="M291.735 298.626C291.735 298.626 283.605 293.231 279.435 291.085C274.826 288.687 264.411 285.807 264.411 285.807" stroke="#472D3A" stroke-width="0.46" stroke-linecap="round" stroke-linejoin="round"/>
<path d="M286.614 310.071C286.614 310.071 276.789 303.748 272.695 301.718C268.582 299.707 263.898 297.445 263.898 297.445" stroke="#472D3A" stroke-width="0.46" stroke-linecap="round" stroke-linejoin="round"/>
</svg>
