<svg width="69" height="93" viewBox="0 0 69 93" fill="none" xmlns="http://www.w3.org/2000/svg">
<path d="M21.9691 48.527V65.1333C21.9691 66.0593 21.2392 66.8207 20.3514 66.8207C20.0555 66.8207 19.7793 66.7384 19.5228 66.5738L15.3799 63.981C14.1567 63.2196 13.4071 61.8409 13.4071 60.3593V53.3011C13.4071 51.8195 12.6574 50.4408 11.4342 49.6794L3.6613 44.7819C2.43815 44.0205 1.68848 42.6418 1.68848 41.1602V3.52332C1.68848 2.59732 2.39869 1.83594 3.30619 1.83594C3.60212 1.83594 3.91777 1.91825 4.17424 2.08287L7.0151 3.93488C8.1988 4.71683 8.92874 6.07497 8.92874 7.536V35.5424C8.92874 37.024 9.67842 38.4027 10.9016 39.1641L20.0357 44.8848C21.2194 45.6667 21.9691 47.0454 21.9691 48.527Z" stroke="#3C3C3C" stroke-width="2" stroke-miterlimit="10"/>
<path d="M30.8469 18.7723L14.9854 8.83321C14.216 8.35992 13.2296 8.60685 12.7758 9.40939C12.618 9.6769 12.5391 9.96499 12.5391 10.2737V30.2547C12.5391 31.7363 13.2887 33.115 14.5119 33.8764L23.6263 39.5971C24.8495 40.3584 25.5992 41.7372 25.5992 43.2188V85.5062C25.5992 86.9878 26.3488 88.3665 27.572 89.1279L30.3734 90.877C31.1428 91.3503 32.1292 91.1034 32.583 90.3008C32.7408 90.0333 32.8197 89.7452 32.8197 89.4366V22.3734C32.8197 20.933 32.07 19.5543 30.8469 18.7723Z" stroke="#3C3C3C" stroke-width="2" stroke-miterlimit="10"/>
<path d="M47.2803 48.527V65.1333C47.2803 66.0593 48.0102 66.8207 48.898 66.8207C49.1939 66.8207 49.4701 66.7384 49.7266 66.5738L53.8695 63.981C55.0927 63.2196 55.8423 61.8409 55.8423 60.3593V53.3217C55.8423 51.8401 56.592 50.4613 57.8152 49.7L65.5881 44.823C66.8112 44.0616 67.5609 42.6829 67.5609 41.2013V3.52332C67.5609 2.59732 66.8507 1.83594 65.9432 1.83594C65.6276 1.83594 65.3316 1.91825 65.0752 2.08287L62.2343 3.93488C61.0506 4.71683 60.3207 6.07497 60.3207 7.536V35.5424C60.3207 37.024 59.571 38.4027 58.3478 39.1641L49.2334 44.8848C48.0497 45.6667 47.2803 47.0454 47.2803 48.527Z" stroke="#3C3C3C" stroke-width="2" stroke-miterlimit="10"/>
<path d="M38.4025 18.7706L54.264 8.83146C55.0334 8.33759 56.0198 8.6051 56.4933 9.38706C56.6511 9.65457 56.7301 9.96324 56.7301 10.2719V30.253C56.7301 31.7346 55.9804 33.1133 54.7572 33.8747L45.6428 39.5953C44.4196 40.3567 43.67 41.7354 43.67 43.217V85.5045C43.67 86.9861 42.9203 88.3648 41.6971 89.1262L38.8957 90.8753C38.1263 91.3486 37.1399 91.1016 36.6862 90.2991C36.5283 90.0316 36.4494 89.7435 36.4494 89.4348L36.4297 22.4128C36.4297 20.9312 37.1794 19.5525 38.4025 18.7706Z" stroke="#3C3C3C" stroke-width="2" stroke-miterlimit="10"/>
</svg>
